<svg width="1020" height="84" viewBox="0 0 1020 84" fill="currentColor" xmlns="http://www.w3.org/2000/svg">
  <path d="M2.0198 18.0096C2.0198 18.5672 1.56765 19.0192 1.0099 19.0192C0.452148 19.0192 0 18.5672 0 18.0096C0 17.452 0.452148 17 1.0099 17C1.56765 17 2.0198 17.452 2.0198 18.0096Z" fill="currentColor"/>
  <path d="M18.1782 18.0096C18.1782 18.5672 17.7261 19.0192 17.1683 19.0192C16.6106 19.0192 16.1584 18.5672 16.1584 18.0096C16.1584 17.452 16.6106 17 17.1683 17C17.7261 17 18.1782 17.452 18.1782 18.0096Z" fill="currentColor"/>
  <path d="M34.3366 18.0096C34.3366 18.5672 33.8845 19.0192 33.3267 19.0192C32.769 19.0192 32.3168 18.5672 32.3168 18.0096C32.3168 17.452 32.769 17 33.3267 17C33.8845 17 34.3366 17.452 34.3366 18.0096Z" fill="currentColor"/>
  <path d="M50.495 18.0096C50.495 18.5672 50.0429 19.0192 49.4851 19.0192C48.9274 19.0192 48.4752 18.5672 48.4752 18.0096C48.4752 17.452 48.9274 17 49.4851 17C50.0429 17 50.495 17.452 50.495 18.0096Z" fill="currentColor"/>
  <path d="M66.6535 18.0096C66.6535 18.5672 66.2013 19.0192 65.6436 19.0192C65.0858 19.0192 64.6337 18.5672 64.6337 18.0096C64.6337 17.452 65.0858 17 65.6436 17C66.2013 17 66.6535 17.452 66.6535 18.0096Z" fill="currentColor"/>
  <path d="M82.8119 18.0096C82.8119 18.5672 82.3597 19.0192 81.802 19.0192C81.2442 19.0192 80.7921 18.5672 80.7921 18.0096C80.7921 17.452 81.2442 17 81.802 17C82.3597 17 82.8119 17.452 82.8119 18.0096Z" fill="currentColor"/>
  <path d="M98.9703 18.0096C98.9703 18.5672 98.5181 19.0192 97.9604 19.0192C97.4026 19.0192 96.9505 18.5672 96.9505 18.0096C96.9505 17.452 97.4026 17 97.9604 17C98.5181 17 98.9703 17.452 98.9703 18.0096Z" fill="currentColor"/>
  <path d="M115.129 18.0096C115.129 18.5672 114.677 19.0192 114.119 19.0192C113.561 19.0192 113.109 18.5672 113.109 18.0096C113.109 17.452 113.561 17 114.119 17C114.677 17 115.129 17.452 115.129 18.0096Z" fill="currentColor"/>
  <path d="M131.287 18.0096C131.287 18.5672 130.835 19.0192 130.277 19.0192C129.719 19.0192 129.267 18.5672 129.267 18.0096C129.267 17.452 129.719 17 130.277 17C130.835 17 131.287 17.452 131.287 18.0096Z" fill="currentColor"/>
  <path d="M147.446 18.0096C147.446 18.5672 146.993 19.0192 146.436 19.0192C145.878 19.0192 145.426 18.5672 145.426 18.0096C145.426 17.452 145.878 17 146.436 17C146.993 17 147.446 17.452 147.446 18.0096Z" fill="currentColor"/>
  <path d="M163.604 18.0096C163.604 18.5672 163.152 19.0192 162.594 19.0192C162.036 19.0192 161.584 18.5672 161.584 18.0096C161.584 17.452 162.036 17 162.594 17C163.152 17 163.604 17.452 163.604 18.0096Z" fill="currentColor"/>
  <path d="M179.762 18.0096C179.762 18.5672 179.31 19.0192 178.752 19.0192C178.195 19.0192 177.743 18.5672 177.743 18.0096C177.743 17.452 178.195 17 178.752 17C179.31 17 179.762 17.452 179.762 18.0096Z" fill="currentColor"/>
  <path d="M195.921 18.0096C195.921 18.5672 195.469 19.0192 194.911 19.0192C194.353 19.0192 193.901 18.5672 193.901 18.0096C193.901 17.452 194.353 17 194.911 17C195.469 17 195.921 17.452 195.921 18.0096Z" fill="currentColor"/>
  <path d="M212.079 18.0096C212.079 18.5672 211.627 19.0192 211.069 19.0192C210.512 19.0192 210.059 18.5672 210.059 18.0096C210.059 17.452 210.512 17 211.069 17C211.627 17 212.079 17.452 212.079 18.0096Z" fill="currentColor"/>
  <path d="M228.238 18.0096C228.238 18.5672 227.785 19.0192 227.228 19.0192C226.67 19.0192 226.218 18.5672 226.218 18.0096C226.218 17.452 226.67 17 227.228 17C227.785 17 228.238 17.452 228.238 18.0096Z" fill="currentColor"/>
  <path d="M244.396 18.0096C244.396 18.5672 243.944 19.0192 243.386 19.0192C242.828 19.0192 242.376 18.5672 242.376 18.0096C242.376 17.452 242.828 17 243.386 17C243.944 17 244.396 17.452 244.396 18.0096Z" fill="currentColor"/>
  <path d="M260.554 18.0096C260.554 18.5672 260.102 19.0192 259.545 19.0192C258.987 19.0192 258.535 18.5672 258.535 18.0096C258.535 17.452 258.987 17 259.545 17C260.102 17 260.554 17.452 260.554 18.0096Z" fill="currentColor"/>
  <path d="M276.713 18.0096C276.713 18.5672 276.261 19.0192 275.703 19.0192C275.145 19.0192 274.693 18.5672 274.693 18.0096C274.693 17.452 275.145 17 275.703 17C276.261 17 276.713 17.452 276.713 18.0096Z" fill="currentColor"/>
  <path d="M292.871 18.0096C292.871 18.5672 292.419 19.0192 291.861 19.0192C291.304 19.0192 290.851 18.5672 290.851 18.0096C290.851 17.452 291.304 17 291.861 17C292.419 17 292.871 17.452 292.871 18.0096Z" fill="currentColor"/>
  <path d="M309.03 18.0096C309.03 18.5672 308.578 19.0192 308.02 19.0192C307.462 19.0192 307.01 18.5672 307.01 18.0096C307.01 17.452 307.462 17 308.02 17C308.578 17 309.03 17.452 309.03 18.0096Z" fill="currentColor"/>
  <path d="M325.188 18.0096C325.188 18.5672 324.736 19.0192 324.178 19.0192C323.62 19.0192 323.168 18.5672 323.168 18.0096C323.168 17.452 323.62 17 324.178 17C324.736 17 325.188 17.452 325.188 18.0096Z" fill="currentColor"/>
  <path d="M341.347 18.0096C341.347 18.5672 340.894 19.0192 340.337 19.0192C339.779 19.0192 339.327 18.5672 339.327 18.0096C339.327 17.452 339.779 17 340.337 17C340.894 17 341.347 17.452 341.347 18.0096Z" fill="currentColor"/>
  <path d="M357.505 18.0096C357.505 18.5672 357.053 19.0192 356.495 19.0192C355.937 19.0192 355.485 18.5672 355.485 18.0096C355.485 17.452 355.937 17 356.495 17C357.053 17 357.505 17.452 357.505 18.0096Z" fill="currentColor"/>
  <path d="M373.663 18.0096C373.663 18.5672 373.211 19.0192 372.653 19.0192C372.096 19.0192 371.644 18.5672 371.644 18.0096C371.644 17.452 372.096 17 372.653 17C373.211 17 373.663 17.452 373.663 18.0096Z" fill="currentColor"/>
  <path d="M389.822 18.0096C389.822 18.5672 389.37 19.0192 388.812 19.0192C388.254 19.0192 387.802 18.5672 387.802 18.0096C387.802 17.452 388.254 17 388.812 17C389.37 17 389.822 17.452 389.822 18.0096Z" fill="currentColor"/>
  <path d="M405.98 18.0096C405.98 18.5672 405.528 19.0192 404.97 19.0192C404.413 19.0192 403.96 18.5672 403.96 18.0096C403.96 17.452 404.413 17 404.97 17C405.528 17 405.98 17.452 405.98 18.0096Z" fill="currentColor"/>
  <path d="M422.139 18.0096C422.139 18.5672 421.686 19.0192 421.129 19.0192C420.571 19.0192 420.119 18.5672 420.119 18.0096C420.119 17.452 420.571 17 421.129 17C421.686 17 422.139 17.452 422.139 18.0096Z" fill="currentColor"/>
  <path d="M438.297 18.0096C438.297 18.5672 437.845 19.0192 437.287 19.0192C436.729 19.0192 436.277 18.5672 436.277 18.0096C436.277 17.452 436.729 17 437.287 17C437.845 17 438.297 17.452 438.297 18.0096Z" fill="currentColor"/>
  <path d="M454.455 18.0096C454.455 18.5672 454.003 19.0192 453.446 19.0192C452.888 19.0192 452.436 18.5672 452.436 18.0096C452.436 17.452 452.888 17 453.446 17C454.003 17 454.455 17.452 454.455 18.0096Z" fill="currentColor"/>
  <path d="M470.614 18.0096C470.614 18.5672 470.162 19.0192 469.604 19.0192C469.046 19.0192 468.594 18.5672 468.594 18.0096C468.594 17.452 469.046 17 469.604 17C470.162 17 470.614 17.452 470.614 18.0096Z" fill="currentColor"/>
  <path d="M486.772 18.0096C486.772 18.5672 486.32 19.0192 485.762 19.0192C485.205 19.0192 484.752 18.5672 484.752 18.0096C484.752 17.452 485.205 17 485.762 17C486.32 17 486.772 17.452 486.772 18.0096Z" fill="currentColor"/>
  <path d="M502.931 18.0096C502.931 18.5672 502.479 19.0192 501.921 19.0192C501.363 19.0192 500.911 18.5672 500.911 18.0096C500.911 17.452 501.363 17 501.921 17C502.479 17 502.931 17.452 502.931 18.0096Z" fill="currentColor"/>
  <path d="M519.089 18.0096C519.089 18.5672 518.637 19.0192 518.079 19.0192C517.521 19.0192 517.069 18.5672 517.069 18.0096C517.069 17.452 517.521 17 518.079 17C518.637 17 519.089 17.452 519.089 18.0096Z" fill="currentColor"/>
  <path d="M535.247 18.0096C535.247 18.5672 534.795 19.0192 534.238 19.0192C533.68 19.0192 533.228 18.5672 533.228 18.0096C533.228 17.452 533.68 17 534.238 17C534.795 17 535.247 17.452 535.247 18.0096Z" fill="currentColor"/>
  <path d="M551.406 18.0096C551.406 18.5672 550.954 19.0192 550.396 19.0192C549.838 19.0192 549.386 18.5672 549.386 18.0096C549.386 17.452 549.838 17 550.396 17C550.954 17 551.406 17.452 551.406 18.0096Z" fill="currentColor"/>
  <path d="M567.564 18.0096C567.564 18.5672 567.112 19.0192 566.554 19.0192C565.997 19.0192 565.544 18.5672 565.544 18.0096C565.544 17.452 565.997 17 566.554 17C567.112 17 567.564 17.452 567.564 18.0096Z" fill="currentColor"/>
  <path d="M583.723 18.0096C583.723 18.5672 583.271 19.0192 582.713 19.0192C582.155 19.0192 581.703 18.5672 581.703 18.0096C581.703 17.452 582.155 17 582.713 17C583.271 17 583.723 17.452 583.723 18.0096Z" fill="currentColor"/>
  <path d="M599.881 18.0096C599.881 18.5672 599.429 19.0192 598.871 19.0192C598.313 19.0192 597.861 18.5672 597.861 18.0096C597.861 17.452 598.313 17 598.871 17C599.429 17 599.881 17.452 599.881 18.0096Z" fill="currentColor"/>
  <path d="M616.04 18.0096C616.04 18.5672 615.587 19.0192 615.03 19.0192C614.472 19.0192 614.02 18.5672 614.02 18.0096C614.02 17.452 614.472 17 615.03 17C615.587 17 616.04 17.452 616.04 18.0096Z" fill="currentColor"/>
  <path d="M632.198 18.0096C632.198 18.5672 631.746 19.0192 631.188 19.0192C630.63 19.0192 630.178 18.5672 630.178 18.0096C630.178 17.452 630.63 17 631.188 17C631.746 17 632.198 17.452 632.198 18.0096Z" fill="currentColor"/>
  <path d="M648.356 18.0096C648.356 18.5672 647.904 19.0192 647.346 19.0192C646.789 19.0192 646.337 18.5672 646.337 18.0096C646.337 17.452 646.789 17 647.346 17C647.904 17 648.356 17.452 648.356 18.0096Z" fill="currentColor"/>
  <path d="M664.515 18.0096C664.515 18.5672 664.063 19.0192 663.505 19.0192C662.947 19.0192 662.495 18.5672 662.495 18.0096C662.495 17.452 662.947 17 663.505 17C664.063 17 664.515 17.452 664.515 18.0096Z" fill="currentColor"/>
  <path d="M680.673 18.0096C680.673 18.5672 680.221 19.0192 679.663 19.0192C679.106 19.0192 678.653 18.5672 678.653 18.0096C678.653 17.452 679.106 17 679.663 17C680.221 17 680.673 17.452 680.673 18.0096Z" fill="currentColor"/>
  <path d="M696.832 18.0096C696.832 18.5672 696.38 19.0192 695.822 19.0192C695.264 19.0192 694.812 18.5672 694.812 18.0096C694.812 17.452 695.264 17 695.822 17C696.38 17 696.832 17.452 696.832 18.0096Z" fill="currentColor"/>
  <path d="M712.99 18.0096C712.99 18.5672 712.538 19.0192 711.98 19.0192C711.422 19.0192 710.97 18.5672 710.97 18.0096C710.97 17.452 711.422 17 711.98 17C712.538 17 712.99 17.452 712.99 18.0096Z" fill="currentColor"/>
  <path d="M729.148 18.0096C729.148 18.5672 728.696 19.0192 728.139 19.0192C727.581 19.0192 727.129 18.5672 727.129 18.0096C727.129 17.452 727.581 17 728.139 17C728.696 17 729.148 17.452 729.148 18.0096Z" fill="currentColor"/>
  <path d="M745.307 18.0096C745.307 18.5672 744.855 19.0192 744.297 19.0192C743.739 19.0192 743.287 18.5672 743.287 18.0096C743.287 17.452 743.739 17 744.297 17C744.855 17 745.307 17.452 745.307 18.0096Z" fill="currentColor"/>
  <path d="M761.465 18.0096C761.465 18.5672 761.013 19.0192 760.455 19.0192C759.898 19.0192 759.446 18.5672 759.446 18.0096C759.446 17.452 759.898 17 760.455 17C761.013 17 761.465 17.452 761.465 18.0096Z" fill="currentColor"/>
  <path d="M777.624 18.0096C777.624 18.5672 777.172 19.0192 776.614 19.0192C776.056 19.0192 775.604 18.5672 775.604 18.0096C775.604 17.452 776.056 17 776.614 17C777.172 17 777.624 17.452 777.624 18.0096Z" fill="currentColor"/>
  <path d="M793.782 18.0096C793.782 18.5672 793.33 19.0192 792.772 19.0192C792.215 19.0192 791.762 18.5672 791.762 18.0096C791.762 17.452 792.215 17 792.772 17C793.33 17 793.782 17.452 793.782 18.0096Z" fill="currentColor"/>
  <path d="M809.941 18.0096C809.941 18.5672 809.488 19.0192 808.931 19.0192C808.373 19.0192 807.921 18.5672 807.921 18.0096C807.921 17.452 808.373 17 808.931 17C809.488 17 809.941 17.452 809.941 18.0096Z" fill="currentColor"/>
  <path d="M826.099 18.0096C826.099 18.5672 825.647 19.0192 825.089 19.0192C824.531 19.0192 824.079 18.5672 824.079 18.0096C824.079 17.452 824.531 17 825.089 17C825.647 17 826.099 17.452 826.099 18.0096Z" fill="currentColor"/>
  <path d="M842.257 18.0096C842.257 18.5672 841.805 19.0192 841.247 19.0192C840.69 19.0192 840.238 18.5672 840.238 18.0096C840.238 17.452 840.69 17 841.247 17C841.805 17 842.257 17.452 842.257 18.0096Z" fill="currentColor"/>
  <path d="M858.416 18.0096C858.416 18.5672 857.964 19.0192 857.406 19.0192C856.848 19.0192 856.396 18.5672 856.396 18.0096C856.396 17.452 856.848 17 857.406 17C857.964 17 858.416 17.452 858.416 18.0096Z" fill="currentColor"/>
  <path d="M874.574 18.0096C874.574 18.5672 874.122 19.0192 873.564 19.0192C873.007 19.0192 872.554 18.5672 872.554 18.0096C872.554 17.452 873.007 17 873.564 17C874.122 17 874.574 17.452 874.574 18.0096Z" fill="currentColor"/>
  <path d="M890.733 18.0096C890.733 18.5672 890.28 19.0192 889.723 19.0192C889.165 19.0192 888.713 18.5672 888.713 18.0096C888.713 17.452 889.165 17 889.723 17C890.28 17 890.733 17.452 890.733 18.0096Z" fill="currentColor"/>
  <path d="M906.891 18.0096C906.891 18.5672 906.439 19.0192 905.881 19.0192C905.323 19.0192 904.871 18.5672 904.871 18.0096C904.871 17.452 905.323 17 905.881 17C906.439 17 906.891 17.452 906.891 18.0096Z" fill="currentColor"/>
  <path d="M923.049 18.0096C923.049 18.5672 922.597 19.0192 922.04 19.0192C921.482 19.0192 921.03 18.5672 921.03 18.0096C921.03 17.452 921.482 17 922.04 17C922.597 17 923.049 17.452 923.049 18.0096Z" fill="currentColor"/>
  <path d="M939.208 18.0096C939.208 18.5672 938.756 19.0192 938.198 19.0192C937.64 19.0192 937.188 18.5672 937.188 18.0096C937.188 17.452 937.64 17 938.198 17C938.756 17 939.208 17.452 939.208 18.0096Z" fill="currentColor"/>
  <path d="M955.366 18.0096C955.366 18.5672 954.914 19.0192 954.356 19.0192C953.799 19.0192 953.346 18.5672 953.346 18.0096C953.346 17.452 953.799 17 954.356 17C954.914 17 955.366 17.452 955.366 18.0096Z" fill="currentColor"/>
  <path d="M971.525 18.0096C971.525 18.5672 971.073 19.0192 970.515 19.0192C969.957 19.0192 969.505 18.5672 969.505 18.0096C969.505 17.452 969.957 17 970.515 17C971.073 17 971.525 17.452 971.525 18.0096Z" fill="currentColor"/>
  <path d="M987.683 18.0096C987.683 18.5672 987.231 19.0192 986.673 19.0192C986.115 19.0192 985.663 18.5672 985.663 18.0096C985.663 17.452 986.115 17 986.673 17C987.231 17 987.683 17.452 987.683 18.0096Z" fill="currentColor"/>
  <path d="M1003.84 18.0096C1003.84 18.5672 1003.39 19.0192 1002.83 19.0192C1002.27 19.0192 1001.82 18.5672 1001.82 18.0096C1001.82 17.452 1002.27 17 1002.83 17C1003.39 17 1003.84 17.452 1003.84 18.0096Z" fill="currentColor"/>
  <path d="M1020 18.0096C1020 18.5672 1019.55 19.0192 1018.99 19.0192C1018.43 19.0192 1017.98 18.5672 1017.98 18.0096C1017.98 17.452 1018.43 17 1018.99 17C1019.55 17 1020 17.452 1020 18.0096Z" fill="currentColor"/>
  <path d="M2.0198 34.1631C2.0198 34.7207 1.56765 35.1727 1.0099 35.1727C0.452148 35.1727 0 34.7207 0 34.1631C0 33.6056 0.452148 33.1535 1.0099 33.1535C1.56765 33.1535 2.0198 33.6056 2.0198 34.1631Z" fill="currentColor"/>
  <path d="M18.1782 34.1631C18.1782 34.7207 17.7261 35.1727 17.1683 35.1727C16.6106 35.1727 16.1584 34.7207 16.1584 34.1631C16.1584 33.6056 16.6106 33.1535 17.1683 33.1535C17.7261 33.1535 18.1782 33.6056 18.1782 34.1631Z" fill="currentColor"/>
  <path d="M34.3366 34.1631C34.3366 34.7207 33.8845 35.1727 33.3267 35.1727C32.769 35.1727 32.3168 34.7207 32.3168 34.1631C32.3168 33.6056 32.769 33.1535 33.3267 33.1535C33.8845 33.1535 34.3366 33.6056 34.3366 34.1631Z" fill="currentColor"/>
  <path d="M50.495 34.1631C50.495 34.7207 50.0429 35.1727 49.4851 35.1727C48.9274 35.1727 48.4752 34.7207 48.4752 34.1631C48.4752 33.6056 48.9274 33.1535 49.4851 33.1535C50.0429 33.1535 50.495 33.6056 50.495 34.1631Z" fill="currentColor"/>
  <path d="M66.6535 34.1631C66.6535 34.7207 66.2013 35.1727 65.6436 35.1727C65.0858 35.1727 64.6337 34.7207 64.6337 34.1631C64.6337 33.6056 65.0858 33.1535 65.6436 33.1535C66.2013 33.1535 66.6535 33.6056 66.6535 34.1631Z" fill="currentColor"/>
  <path d="M82.8119 34.1631C82.8119 34.7207 82.3597 35.1727 81.802 35.1727C81.2442 35.1727 80.7921 34.7207 80.7921 34.1631C80.7921 33.6056 81.2442 33.1535 81.802 33.1535C82.3597 33.1535 82.8119 33.6056 82.8119 34.1631Z" fill="currentColor"/>
  <path d="M98.9703 34.1631C98.9703 34.7207 98.5181 35.1727 97.9604 35.1727C97.4026 35.1727 96.9505 34.7207 96.9505 34.1631C96.9505 33.6056 97.4026 33.1535 97.9604 33.1535C98.5181 33.1535 98.9703 33.6056 98.9703 34.1631Z" fill="currentColor"/>
  <path d="M115.129 34.1631C115.129 34.7207 114.677 35.1727 114.119 35.1727C113.561 35.1727 113.109 34.7207 113.109 34.1631C113.109 33.6056 113.561 33.1535 114.119 33.1535C114.677 33.1535 115.129 33.6056 115.129 34.1631Z" fill="currentColor"/>
  <path d="M131.287 34.1631C131.287 34.7207 130.835 35.1727 130.277 35.1727C129.719 35.1727 129.267 34.7207 129.267 34.1631C129.267 33.6056 129.719 33.1535 130.277 33.1535C130.835 33.1535 131.287 33.6056 131.287 34.1631Z" fill="currentColor"/>
  <path d="M147.446 34.1631C147.446 34.7207 146.993 35.1727 146.436 35.1727C145.878 35.1727 145.426 34.7207 145.426 34.1631C145.426 33.6056 145.878 33.1535 146.436 33.1535C146.993 33.1535 147.446 33.6056 147.446 34.1631Z" fill="currentColor"/>
  <path d="M163.604 34.1631C163.604 34.7207 163.152 35.1727 162.594 35.1727C162.036 35.1727 161.584 34.7207 161.584 34.1631C161.584 33.6056 162.036 33.1535 162.594 33.1535C163.152 33.1535 163.604 33.6056 163.604 34.1631Z" fill="currentColor"/>
  <path d="M179.762 34.1631C179.762 34.7207 179.31 35.1727 178.752 35.1727C178.195 35.1727 177.743 34.7207 177.743 34.1631C177.743 33.6056 178.195 33.1535 178.752 33.1535C179.31 33.1535 179.762 33.6056 179.762 34.1631Z" fill="currentColor"/>
  <path d="M195.921 34.1631C195.921 34.7207 195.469 35.1727 194.911 35.1727C194.353 35.1727 193.901 34.7207 193.901 34.1631C193.901 33.6056 194.353 33.1535 194.911 33.1535C195.469 33.1535 195.921 33.6056 195.921 34.1631Z" fill="currentColor"/>
  <path d="M212.079 34.1631C212.079 34.7207 211.627 35.1727 211.069 35.1727C210.512 35.1727 210.059 34.7207 210.059 34.1631C210.059 33.6056 210.512 33.1535 211.069 33.1535C211.627 33.1535 212.079 33.6056 212.079 34.1631Z" fill="currentColor"/>
  <path d="M228.238 34.1631C228.238 34.7207 227.785 35.1727 227.228 35.1727C226.67 35.1727 226.218 34.7207 226.218 34.1631C226.218 33.6056 226.67 33.1535 227.228 33.1535C227.785 33.1535 228.238 33.6056 228.238 34.1631Z" fill="currentColor"/>
  <path d="M244.396 34.1631C244.396 34.7207 243.944 35.1727 243.386 35.1727C242.828 35.1727 242.376 34.7207 242.376 34.1631C242.376 33.6056 242.828 33.1535 243.386 33.1535C243.944 33.1535 244.396 33.6056 244.396 34.1631Z" fill="currentColor"/>
  <path d="M260.554 34.1631C260.554 34.7207 260.102 35.1727 259.545 35.1727C258.987 35.1727 258.535 34.7207 258.535 34.1631C258.535 33.6056 258.987 33.1535 259.545 33.1535C260.102 33.1535 260.554 33.6056 260.554 34.1631Z" fill="currentColor"/>
  <path d="M276.713 34.1631C276.713 34.7207 276.261 35.1727 275.703 35.1727C275.145 35.1727 274.693 34.7207 274.693 34.1631C274.693 33.6056 275.145 33.1535 275.703 33.1535C276.261 33.1535 276.713 33.6056 276.713 34.1631Z" fill="currentColor"/>
  <path d="M292.871 34.1631C292.871 34.7207 292.419 35.1727 291.861 35.1727C291.304 35.1727 290.851 34.7207 290.851 34.1631C290.851 33.6056 291.304 33.1535 291.861 33.1535C292.419 33.1535 292.871 33.6056 292.871 34.1631Z" fill="currentColor"/>
  <path d="M309.03 34.1631C309.03 34.7207 308.578 35.1727 308.02 35.1727C307.462 35.1727 307.01 34.7207 307.01 34.1631C307.01 33.6056 307.462 33.1535 308.02 33.1535C308.578 33.1535 309.03 33.6056 309.03 34.1631Z" fill="currentColor"/>
  <path d="M325.188 34.1631C325.188 34.7207 324.736 35.1727 324.178 35.1727C323.62 35.1727 323.168 34.7207 323.168 34.1631C323.168 33.6056 323.62 33.1535 324.178 33.1535C324.736 33.1535 325.188 33.6056 325.188 34.1631Z" fill="currentColor"/>
  <path d="M341.347 34.1631C341.347 34.7207 340.894 35.1727 340.337 35.1727C339.779 35.1727 339.327 34.7207 339.327 34.1631C339.327 33.6056 339.779 33.1535 340.337 33.1535C340.894 33.1535 341.347 33.6056 341.347 34.1631Z" fill="currentColor"/>
  <path d="M357.505 34.1631C357.505 34.7207 357.053 35.1727 356.495 35.1727C355.937 35.1727 355.485 34.7207 355.485 34.1631C355.485 33.6056 355.937 33.1535 356.495 33.1535C357.053 33.1535 357.505 33.6056 357.505 34.1631Z" fill="currentColor"/>
  <path d="M373.663 34.1631C373.663 34.7207 373.211 35.1727 372.653 35.1727C372.096 35.1727 371.644 34.7207 371.644 34.1631C371.644 33.6056 372.096 33.1535 372.653 33.1535C373.211 33.1535 373.663 33.6056 373.663 34.1631Z" fill="currentColor"/>
  <path d="M389.822 34.1631C389.822 34.7207 389.37 35.1727 388.812 35.1727C388.254 35.1727 387.802 34.7207 387.802 34.1631C387.802 33.6056 388.254 33.1535 388.812 33.1535C389.37 33.1535 389.822 33.6056 389.822 34.1631Z" fill="currentColor"/>
  <path d="M405.98 34.1631C405.98 34.7207 405.528 35.1727 404.97 35.1727C404.413 35.1727 403.96 34.7207 403.96 34.1631C403.96 33.6056 404.413 33.1535 404.97 33.1535C405.528 33.1535 405.98 33.6056 405.98 34.1631Z" fill="currentColor"/>
  <path d="M422.139 34.1631C422.139 34.7207 421.686 35.1727 421.129 35.1727C420.571 35.1727 420.119 34.7207 420.119 34.1631C420.119 33.6056 420.571 33.1535 421.129 33.1535C421.686 33.1535 422.139 33.6056 422.139 34.1631Z" fill="currentColor"/>
  <path d="M438.297 34.1631C438.297 34.7207 437.845 35.1727 437.287 35.1727C436.729 35.1727 436.277 34.7207 436.277 34.1631C436.277 33.6056 436.729 33.1535 437.287 33.1535C437.845 33.1535 438.297 33.6056 438.297 34.1631Z" fill="currentColor"/>
  <path d="M454.455 34.1631C454.455 34.7207 454.003 35.1727 453.446 35.1727C452.888 35.1727 452.436 34.7207 452.436 34.1631C452.436 33.6056 452.888 33.1535 453.446 33.1535C454.003 33.1535 454.455 33.6056 454.455 34.1631Z" fill="currentColor"/>
  <path d="M470.614 34.1631C470.614 34.7207 470.162 35.1727 469.604 35.1727C469.046 35.1727 468.594 34.7207 468.594 34.1631C468.594 33.6056 469.046 33.1535 469.604 33.1535C470.162 33.1535 470.614 33.6056 470.614 34.1631Z" fill="currentColor"/>
  <path d="M486.772 34.1631C486.772 34.7207 486.32 35.1727 485.762 35.1727C485.205 35.1727 484.752 34.7207 484.752 34.1631C484.752 33.6056 485.205 33.1535 485.762 33.1535C486.32 33.1535 486.772 33.6056 486.772 34.1631Z" fill="currentColor"/>
  <path d="M502.931 34.1631C502.931 34.7207 502.479 35.1727 501.921 35.1727C501.363 35.1727 500.911 34.7207 500.911 34.1631C500.911 33.6056 501.363 33.1535 501.921 33.1535C502.479 33.1535 502.931 33.6056 502.931 34.1631Z" fill="currentColor"/>
  <path d="M519.089 34.1631C519.089 34.7207 518.637 35.1727 518.079 35.1727C517.521 35.1727 517.069 34.7207 517.069 34.1631C517.069 33.6056 517.521 33.1535 518.079 33.1535C518.637 33.1535 519.089 33.6056 519.089 34.1631Z" fill="currentColor"/>
  <path d="M535.247 34.1631C535.247 34.7207 534.795 35.1727 534.238 35.1727C533.68 35.1727 533.228 34.7207 533.228 34.1631C533.228 33.6056 533.68 33.1535 534.238 33.1535C534.795 33.1535 535.247 33.6056 535.247 34.1631Z" fill="currentColor"/>
  <path d="M551.406 34.1631C551.406 34.7207 550.954 35.1727 550.396 35.1727C549.838 35.1727 549.386 34.7207 549.386 34.1631C549.386 33.6056 549.838 33.1535 550.396 33.1535C550.954 33.1535 551.406 33.6056 551.406 34.1631Z" fill="currentColor"/>
  <path d="M567.564 34.1631C567.564 34.7207 567.112 35.1727 566.554 35.1727C565.997 35.1727 565.544 34.7207 565.544 34.1631C565.544 33.6056 565.997 33.1535 566.554 33.1535C567.112 33.1535 567.564 33.6056 567.564 34.1631Z" fill="currentColor"/>
  <path d="M583.723 34.1631C583.723 34.7207 583.271 35.1727 582.713 35.1727C582.155 35.1727 581.703 34.7207 581.703 34.1631C581.703 33.6056 582.155 33.1535 582.713 33.1535C583.271 33.1535 583.723 33.6056 583.723 34.1631Z" fill="currentColor"/>
  <path d="M599.881 34.1631C599.881 34.7207 599.429 35.1727 598.871 35.1727C598.313 35.1727 597.861 34.7207 597.861 34.1631C597.861 33.6056 598.313 33.1535 598.871 33.1535C599.429 33.1535 599.881 33.6056 599.881 34.1631Z" fill="currentColor"/>
  <path d="M616.04 34.1631C616.04 34.7207 615.587 35.1727 615.03 35.1727C614.472 35.1727 614.02 34.7207 614.02 34.1631C614.02 33.6056 614.472 33.1535 615.03 33.1535C615.587 33.1535 616.04 33.6056 616.04 34.1631Z" fill="currentColor"/>
  <path d="M632.198 34.1631C632.198 34.7207 631.746 35.1727 631.188 35.1727C630.63 35.1727 630.178 34.7207 630.178 34.1631C630.178 33.6056 630.63 33.1535 631.188 33.1535C631.746 33.1535 632.198 33.6056 632.198 34.1631Z" fill="currentColor"/>
  <path d="M648.356 34.1631C648.356 34.7207 647.904 35.1727 647.346 35.1727C646.789 35.1727 646.337 34.7207 646.337 34.1631C646.337 33.6056 646.789 33.1535 647.346 33.1535C647.904 33.1535 648.356 33.6056 648.356 34.1631Z" fill="currentColor"/>
  <path d="M664.515 34.1631C664.515 34.7207 664.063 35.1727 663.505 35.1727C662.947 35.1727 662.495 34.7207 662.495 34.1631C662.495 33.6056 662.947 33.1535 663.505 33.1535C664.063 33.1535 664.515 33.6056 664.515 34.1631Z" fill="currentColor"/>
  <path d="M680.673 34.1631C680.673 34.7207 680.221 35.1727 679.663 35.1727C679.106 35.1727 678.653 34.7207 678.653 34.1631C678.653 33.6056 679.106 33.1535 679.663 33.1535C680.221 33.1535 680.673 33.6056 680.673 34.1631Z" fill="currentColor"/>
  <path d="M696.832 34.1631C696.832 34.7207 696.38 35.1727 695.822 35.1727C695.264 35.1727 694.812 34.7207 694.812 34.1631C694.812 33.6056 695.264 33.1535 695.822 33.1535C696.38 33.1535 696.832 33.6056 696.832 34.1631Z" fill="currentColor"/>
  <path d="M712.99 34.1631C712.99 34.7207 712.538 35.1727 711.98 35.1727C711.422 35.1727 710.97 34.7207 710.97 34.1631C710.97 33.6056 711.422 33.1535 711.98 33.1535C712.538 33.1535 712.99 33.6056 712.99 34.1631Z" fill="currentColor"/>
  <path d="M729.148 34.1631C729.148 34.7207 728.696 35.1727 728.139 35.1727C727.581 35.1727 727.129 34.7207 727.129 34.1631C727.129 33.6056 727.581 33.1535 728.139 33.1535C728.696 33.1535 729.148 33.6056 729.148 34.1631Z" fill="currentColor"/>
  <path d="M745.307 34.1631C745.307 34.7207 744.855 35.1727 744.297 35.1727C743.739 35.1727 743.287 34.7207 743.287 34.1631C743.287 33.6056 743.739 33.1535 744.297 33.1535C744.855 33.1535 745.307 33.6056 745.307 34.1631Z" fill="currentColor"/>
  <path d="M761.465 34.1631C761.465 34.7207 761.013 35.1727 760.455 35.1727C759.898 35.1727 759.446 34.7207 759.446 34.1631C759.446 33.6056 759.898 33.1535 760.455 33.1535C761.013 33.1535 761.465 33.6056 761.465 34.1631Z" fill="currentColor"/>
  <path d="M777.624 34.1631C777.624 34.7207 777.172 35.1727 776.614 35.1727C776.056 35.1727 775.604 34.7207 775.604 34.1631C775.604 33.6056 776.056 33.1535 776.614 33.1535C777.172 33.1535 777.624 33.6056 777.624 34.1631Z" fill="currentColor"/>
  <path d="M793.782 34.1631C793.782 34.7207 793.33 35.1727 792.772 35.1727C792.215 35.1727 791.762 34.7207 791.762 34.1631C791.762 33.6056 792.215 33.1535 792.772 33.1535C793.33 33.1535 793.782 33.6056 793.782 34.1631Z" fill="currentColor"/>
  <path d="M809.941 34.1631C809.941 34.7207 809.488 35.1727 808.931 35.1727C808.373 35.1727 807.921 34.7207 807.921 34.1631C807.921 33.6056 808.373 33.1535 808.931 33.1535C809.488 33.1535 809.941 33.6056 809.941 34.1631Z" fill="currentColor"/>
  <path d="M826.099 34.1631C826.099 34.7207 825.647 35.1727 825.089 35.1727C824.531 35.1727 824.079 34.7207 824.079 34.1631C824.079 33.6056 824.531 33.1535 825.089 33.1535C825.647 33.1535 826.099 33.6056 826.099 34.1631Z" fill="currentColor"/>
  <path d="M842.257 34.1631C842.257 34.7207 841.805 35.1727 841.247 35.1727C840.69 35.1727 840.238 34.7207 840.238 34.1631C840.238 33.6056 840.69 33.1535 841.247 33.1535C841.805 33.1535 842.257 33.6056 842.257 34.1631Z" fill="currentColor"/>
  <path d="M858.416 34.1631C858.416 34.7207 857.964 35.1727 857.406 35.1727C856.848 35.1727 856.396 34.7207 856.396 34.1631C856.396 33.6056 856.848 33.1535 857.406 33.1535C857.964 33.1535 858.416 33.6056 858.416 34.1631Z" fill="currentColor"/>
  <path d="M874.574 34.1631C874.574 34.7207 874.122 35.1727 873.564 35.1727C873.007 35.1727 872.554 34.7207 872.554 34.1631C872.554 33.6056 873.007 33.1535 873.564 33.1535C874.122 33.1535 874.574 33.6056 874.574 34.1631Z" fill="currentColor"/>
  <path d="M890.733 34.1631C890.733 34.7207 890.28 35.1727 889.723 35.1727C889.165 35.1727 888.713 34.7207 888.713 34.1631C888.713 33.6056 889.165 33.1535 889.723 33.1535C890.28 33.1535 890.733 33.6056 890.733 34.1631Z" fill="currentColor"/>
  <path d="M906.891 34.1631C906.891 34.7207 906.439 35.1727 905.881 35.1727C905.323 35.1727 904.871 34.7207 904.871 34.1631C904.871 33.6056 905.323 33.1535 905.881 33.1535C906.439 33.1535 906.891 33.6056 906.891 34.1631Z" fill="currentColor"/>
  <path d="M923.049 34.1631C923.049 34.7207 922.597 35.1727 922.04 35.1727C921.482 35.1727 921.03 34.7207 921.03 34.1631C921.03 33.6056 921.482 33.1535 922.04 33.1535C922.597 33.1535 923.049 33.6056 923.049 34.1631Z" fill="currentColor"/>
  <path d="M939.208 34.1631C939.208 34.7207 938.756 35.1727 938.198 35.1727C937.64 35.1727 937.188 34.7207 937.188 34.1631C937.188 33.6056 937.64 33.1535 938.198 33.1535C938.756 33.1535 939.208 33.6056 939.208 34.1631Z" fill="currentColor"/>
  <path d="M955.366 34.1631C955.366 34.7207 954.914 35.1727 954.356 35.1727C953.799 35.1727 953.346 34.7207 953.346 34.1631C953.346 33.6056 953.799 33.1535 954.356 33.1535C954.914 33.1535 955.366 33.6056 955.366 34.1631Z" fill="currentColor"/>
  <path d="M971.525 34.1631C971.525 34.7207 971.073 35.1727 970.515 35.1727C969.957 35.1727 969.505 34.7207 969.505 34.1631C969.505 33.6056 969.957 33.1535 970.515 33.1535C971.073 33.1535 971.525 33.6056 971.525 34.1631Z" fill="currentColor"/>
  <path d="M987.683 34.1631C987.683 34.7207 987.231 35.1727 986.673 35.1727C986.115 35.1727 985.663 34.7207 985.663 34.1631C985.663 33.6056 986.115 33.1535 986.673 33.1535C987.231 33.1535 987.683 33.6056 987.683 34.1631Z" fill="currentColor"/>
  <path d="M1003.84 34.1631C1003.84 34.7207 1003.39 35.1727 1002.83 35.1727C1002.27 35.1727 1001.82 34.7207 1001.82 34.1631C1001.82 33.6056 1002.27 33.1535 1002.83 33.1535C1003.39 33.1535 1003.84 33.6056 1003.84 34.1631Z" fill="currentColor"/>
  <path d="M1020 34.1631C1020 34.7207 1019.55 35.1727 1018.99 35.1727C1018.43 35.1727 1017.98 34.7207 1017.98 34.1631C1017.98 33.6056 1018.43 33.1535 1018.99 33.1535C1019.55 33.1535 1020 33.6056 1020 34.1631Z" fill="currentColor"/>
  <path d="M2.0198 50.3167C2.0198 50.8743 1.56765 51.3263 1.0099 51.3263C0.452148 51.3263 0 50.8743 0 50.3167C0 49.7591 0.452148 49.3071 1.0099 49.3071C1.56765 49.3071 2.0198 49.7591 2.0198 50.3167Z" fill="currentColor"/>
  <path d="M18.1782 50.3167C18.1782 50.8743 17.7261 51.3263 17.1683 51.3263C16.6106 51.3263 16.1584 50.8743 16.1584 50.3167C16.1584 49.7591 16.6106 49.3071 17.1683 49.3071C17.7261 49.3071 18.1782 49.7591 18.1782 50.3167Z" fill="currentColor"/>
  <path d="M34.3366 50.3167C34.3366 50.8743 33.8845 51.3263 33.3267 51.3263C32.769 51.3263 32.3168 50.8743 32.3168 50.3167C32.3168 49.7591 32.769 49.3071 33.3267 49.3071C33.8845 49.3071 34.3366 49.7591 34.3366 50.3167Z" fill="currentColor"/>
  <path d="M50.495 50.3167C50.495 50.8743 50.0429 51.3263 49.4851 51.3263C48.9274 51.3263 48.4752 50.8743 48.4752 50.3167C48.4752 49.7591 48.9274 49.3071 49.4851 49.3071C50.0429 49.3071 50.495 49.7591 50.495 50.3167Z" fill="currentColor"/>
  <path d="M66.6535 50.3167C66.6535 50.8743 66.2013 51.3263 65.6436 51.3263C65.0858 51.3263 64.6337 50.8743 64.6337 50.3167C64.6337 49.7591 65.0858 49.3071 65.6436 49.3071C66.2013 49.3071 66.6535 49.7591 66.6535 50.3167Z" fill="currentColor"/>
  <path d="M82.8119 50.3167C82.8119 50.8743 82.3597 51.3263 81.802 51.3263C81.2442 51.3263 80.7921 50.8743 80.7921 50.3167C80.7921 49.7591 81.2442 49.3071 81.802 49.3071C82.3597 49.3071 82.8119 49.7591 82.8119 50.3167Z" fill="currentColor"/>
  <path d="M98.9703 50.3167C98.9703 50.8743 98.5181 51.3263 97.9604 51.3263C97.4026 51.3263 96.9505 50.8743 96.9505 50.3167C96.9505 49.7591 97.4026 49.3071 97.9604 49.3071C98.5181 49.3071 98.9703 49.7591 98.9703 50.3167Z" fill="currentColor"/>
  <path d="M115.129 50.3167C115.129 50.8743 114.677 51.3263 114.119 51.3263C113.561 51.3263 113.109 50.8743 113.109 50.3167C113.109 49.7591 113.561 49.3071 114.119 49.3071C114.677 49.3071 115.129 49.7591 115.129 50.3167Z" fill="currentColor"/>
  <path d="M131.287 50.3167C131.287 50.8743 130.835 51.3263 130.277 51.3263C129.719 51.3263 129.267 50.8743 129.267 50.3167C129.267 49.7591 129.719 49.3071 130.277 49.3071C130.835 49.3071 131.287 49.7591 131.287 50.3167Z" fill="currentColor"/>
  <path d="M147.446 50.3167C147.446 50.8743 146.993 51.3263 146.436 51.3263C145.878 51.3263 145.426 50.8743 145.426 50.3167C145.426 49.7591 145.878 49.3071 146.436 49.3071C146.993 49.3071 147.446 49.7591 147.446 50.3167Z" fill="currentColor"/>
  <path d="M163.604 50.3167C163.604 50.8743 163.152 51.3263 162.594 51.3263C162.036 51.3263 161.584 50.8743 161.584 50.3167C161.584 49.7591 162.036 49.3071 162.594 49.3071C163.152 49.3071 163.604 49.7591 163.604 50.3167Z" fill="currentColor"/>
  <path d="M179.762 50.3167C179.762 50.8743 179.31 51.3263 178.752 51.3263C178.195 51.3263 177.743 50.8743 177.743 50.3167C177.743 49.7591 178.195 49.3071 178.752 49.3071C179.31 49.3071 179.762 49.7591 179.762 50.3167Z" fill="currentColor"/>
  <path d="M195.921 50.3167C195.921 50.8743 195.469 51.3263 194.911 51.3263C194.353 51.3263 193.901 50.8743 193.901 50.3167C193.901 49.7591 194.353 49.3071 194.911 49.3071C195.469 49.3071 195.921 49.7591 195.921 50.3167Z" fill="currentColor"/>
  <path d="M212.079 50.3167C212.079 50.8743 211.627 51.3263 211.069 51.3263C210.512 51.3263 210.059 50.8743 210.059 50.3167C210.059 49.7591 210.512 49.3071 211.069 49.3071C211.627 49.3071 212.079 49.7591 212.079 50.3167Z" fill="currentColor"/>
  <path d="M228.238 50.3167C228.238 50.8743 227.785 51.3263 227.228 51.3263C226.67 51.3263 226.218 50.8743 226.218 50.3167C226.218 49.7591 226.67 49.3071 227.228 49.3071C227.785 49.3071 228.238 49.7591 228.238 50.3167Z" fill="currentColor"/>
  <path d="M244.396 50.3167C244.396 50.8743 243.944 51.3263 243.386 51.3263C242.828 51.3263 242.376 50.8743 242.376 50.3167C242.376 49.7591 242.828 49.3071 243.386 49.3071C243.944 49.3071 244.396 49.7591 244.396 50.3167Z" fill="currentColor"/>
  <path d="M260.554 50.3167C260.554 50.8743 260.102 51.3263 259.545 51.3263C258.987 51.3263 258.535 50.8743 258.535 50.3167C258.535 49.7591 258.987 49.3071 259.545 49.3071C260.102 49.3071 260.554 49.7591 260.554 50.3167Z" fill="currentColor"/>
  <path d="M276.713 50.3167C276.713 50.8743 276.261 51.3263 275.703 51.3263C275.145 51.3263 274.693 50.8743 274.693 50.3167C274.693 49.7591 275.145 49.3071 275.703 49.3071C276.261 49.3071 276.713 49.7591 276.713 50.3167Z" fill="currentColor"/>
  <path d="M292.871 50.3167C292.871 50.8743 292.419 51.3263 291.861 51.3263C291.304 51.3263 290.851 50.8743 290.851 50.3167C290.851 49.7591 291.304 49.3071 291.861 49.3071C292.419 49.3071 292.871 49.7591 292.871 50.3167Z" fill="currentColor"/>
  <path d="M309.03 50.3167C309.03 50.8743 308.578 51.3263 308.02 51.3263C307.462 51.3263 307.01 50.8743 307.01 50.3167C307.01 49.7591 307.462 49.3071 308.02 49.3071C308.578 49.3071 309.03 49.7591 309.03 50.3167Z" fill="currentColor"/>
  <path d="M325.188 50.3167C325.188 50.8743 324.736 51.3263 324.178 51.3263C323.62 51.3263 323.168 50.8743 323.168 50.3167C323.168 49.7591 323.62 49.3071 324.178 49.3071C324.736 49.3071 325.188 49.7591 325.188 50.3167Z" fill="currentColor"/>
  <path d="M341.347 50.3167C341.347 50.8743 340.894 51.3263 340.337 51.3263C339.779 51.3263 339.327 50.8743 339.327 50.3167C339.327 49.7591 339.779 49.3071 340.337 49.3071C340.894 49.3071 341.347 49.7591 341.347 50.3167Z" fill="currentColor"/>
  <path d="M357.505 50.3167C357.505 50.8743 357.053 51.3263 356.495 51.3263C355.937 51.3263 355.485 50.8743 355.485 50.3167C355.485 49.7591 355.937 49.3071 356.495 49.3071C357.053 49.3071 357.505 49.7591 357.505 50.3167Z" fill="currentColor"/>
  <path d="M373.663 50.3167C373.663 50.8743 373.211 51.3263 372.653 51.3263C372.096 51.3263 371.644 50.8743 371.644 50.3167C371.644 49.7591 372.096 49.3071 372.653 49.3071C373.211 49.3071 373.663 49.7591 373.663 50.3167Z" fill="currentColor"/>
  <path d="M389.822 50.3167C389.822 50.8743 389.37 51.3263 388.812 51.3263C388.254 51.3263 387.802 50.8743 387.802 50.3167C387.802 49.7591 388.254 49.3071 388.812 49.3071C389.37 49.3071 389.822 49.7591 389.822 50.3167Z" fill="currentColor"/>
  <path d="M405.98 50.3167C405.98 50.8743 405.528 51.3263 404.97 51.3263C404.413 51.3263 403.96 50.8743 403.96 50.3167C403.96 49.7591 404.413 49.3071 404.97 49.3071C405.528 49.3071 405.98 49.7591 405.98 50.3167Z" fill="currentColor"/>
  <path d="M422.139 50.3167C422.139 50.8743 421.686 51.3263 421.129 51.3263C420.571 51.3263 420.119 50.8743 420.119 50.3167C420.119 49.7591 420.571 49.3071 421.129 49.3071C421.686 49.3071 422.139 49.7591 422.139 50.3167Z" fill="currentColor"/>
  <path d="M438.297 50.3167C438.297 50.8743 437.845 51.3263 437.287 51.3263C436.729 51.3263 436.277 50.8743 436.277 50.3167C436.277 49.7591 436.729 49.3071 437.287 49.3071C437.845 49.3071 438.297 49.7591 438.297 50.3167Z" fill="currentColor"/>
  <path d="M454.455 50.3167C454.455 50.8743 454.003 51.3263 453.446 51.3263C452.888 51.3263 452.436 50.8743 452.436 50.3167C452.436 49.7591 452.888 49.3071 453.446 49.3071C454.003 49.3071 454.455 49.7591 454.455 50.3167Z" fill="currentColor"/>
  <path d="M470.614 50.3167C470.614 50.8743 470.162 51.3263 469.604 51.3263C469.046 51.3263 468.594 50.8743 468.594 50.3167C468.594 49.7591 469.046 49.3071 469.604 49.3071C470.162 49.3071 470.614 49.7591 470.614 50.3167Z" fill="currentColor"/>
  <path d="M486.772 50.3167C486.772 50.8743 486.32 51.3263 485.762 51.3263C485.205 51.3263 484.752 50.8743 484.752 50.3167C484.752 49.7591 485.205 49.3071 485.762 49.3071C486.32 49.3071 486.772 49.7591 486.772 50.3167Z" fill="currentColor"/>
  <path d="M502.931 50.3167C502.931 50.8743 502.479 51.3263 501.921 51.3263C501.363 51.3263 500.911 50.8743 500.911 50.3167C500.911 49.7591 501.363 49.3071 501.921 49.3071C502.479 49.3071 502.931 49.7591 502.931 50.3167Z" fill="currentColor"/>
  <path d="M519.089 50.3167C519.089 50.8743 518.637 51.3263 518.079 51.3263C517.521 51.3263 517.069 50.8743 517.069 50.3167C517.069 49.7591 517.521 49.3071 518.079 49.3071C518.637 49.3071 519.089 49.7591 519.089 50.3167Z" fill="currentColor"/>
  <path d="M535.247 50.3167C535.247 50.8743 534.795 51.3263 534.238 51.3263C533.68 51.3263 533.228 50.8743 533.228 50.3167C533.228 49.7591 533.68 49.3071 534.238 49.3071C534.795 49.3071 535.247 49.7591 535.247 50.3167Z" fill="currentColor"/>
  <path d="M551.406 50.3167C551.406 50.8743 550.954 51.3263 550.396 51.3263C549.838 51.3263 549.386 50.8743 549.386 50.3167C549.386 49.7591 549.838 49.3071 550.396 49.3071C550.954 49.3071 551.406 49.7591 551.406 50.3167Z" fill="currentColor"/>
  <path d="M567.564 50.3167C567.564 50.8743 567.112 51.3263 566.554 51.3263C565.997 51.3263 565.544 50.8743 565.544 50.3167C565.544 49.7591 565.997 49.3071 566.554 49.3071C567.112 49.3071 567.564 49.7591 567.564 50.3167Z" fill="currentColor"/>
  <path d="M583.723 50.3167C583.723 50.8743 583.271 51.3263 582.713 51.3263C582.155 51.3263 581.703 50.8743 581.703 50.3167C581.703 49.7591 582.155 49.3071 582.713 49.3071C583.271 49.3071 583.723 49.7591 583.723 50.3167Z" fill="currentColor"/>
  <path d="M599.881 50.3167C599.881 50.8743 599.429 51.3263 598.871 51.3263C598.313 51.3263 597.861 50.8743 597.861 50.3167C597.861 49.7591 598.313 49.3071 598.871 49.3071C599.429 49.3071 599.881 49.7591 599.881 50.3167Z" fill="currentColor"/>
  <path d="M616.04 50.3167C616.04 50.8743 615.587 51.3263 615.03 51.3263C614.472 51.3263 614.02 50.8743 614.02 50.3167C614.02 49.7591 614.472 49.3071 615.03 49.3071C615.587 49.3071 616.04 49.7591 616.04 50.3167Z" fill="currentColor"/>
  <path d="M632.198 50.3167C632.198 50.8743 631.746 51.3263 631.188 51.3263C630.63 51.3263 630.178 50.8743 630.178 50.3167C630.178 49.7591 630.63 49.3071 631.188 49.3071C631.746 49.3071 632.198 49.7591 632.198 50.3167Z" fill="currentColor"/>
  <path d="M648.356 50.3167C648.356 50.8743 647.904 51.3263 647.346 51.3263C646.789 51.3263 646.337 50.8743 646.337 50.3167C646.337 49.7591 646.789 49.3071 647.346 49.3071C647.904 49.3071 648.356 49.7591 648.356 50.3167Z" fill="currentColor"/>
  <path d="M664.515 50.3167C664.515 50.8743 664.063 51.3263 663.505 51.3263C662.947 51.3263 662.495 50.8743 662.495 50.3167C662.495 49.7591 662.947 49.3071 663.505 49.3071C664.063 49.3071 664.515 49.7591 664.515 50.3167Z" fill="currentColor"/>
  <path d="M680.673 50.3167C680.673 50.8743 680.221 51.3263 679.663 51.3263C679.106 51.3263 678.653 50.8743 678.653 50.3167C678.653 49.7591 679.106 49.3071 679.663 49.3071C680.221 49.3071 680.673 49.7591 680.673 50.3167Z" fill="currentColor"/>
  <path d="M696.832 50.3167C696.832 50.8743 696.38 51.3263 695.822 51.3263C695.264 51.3263 694.812 50.8743 694.812 50.3167C694.812 49.7591 695.264 49.3071 695.822 49.3071C696.38 49.3071 696.832 49.7591 696.832 50.3167Z" fill="currentColor"/>
  <path d="M712.99 50.3167C712.99 50.8743 712.538 51.3263 711.98 51.3263C711.422 51.3263 710.97 50.8743 710.97 50.3167C710.97 49.7591 711.422 49.3071 711.98 49.3071C712.538 49.3071 712.99 49.7591 712.99 50.3167Z" fill="currentColor"/>
  <path d="M729.148 50.3167C729.148 50.8743 728.696 51.3263 728.139 51.3263C727.581 51.3263 727.129 50.8743 727.129 50.3167C727.129 49.7591 727.581 49.3071 728.139 49.3071C728.696 49.3071 729.148 49.7591 729.148 50.3167Z" fill="currentColor"/>
  <path d="M745.307 50.3167C745.307 50.8743 744.855 51.3263 744.297 51.3263C743.739 51.3263 743.287 50.8743 743.287 50.3167C743.287 49.7591 743.739 49.3071 744.297 49.3071C744.855 49.3071 745.307 49.7591 745.307 50.3167Z" fill="currentColor"/>
  <path d="M761.465 50.3167C761.465 50.8743 761.013 51.3263 760.455 51.3263C759.898 51.3263 759.446 50.8743 759.446 50.3167C759.446 49.7591 759.898 49.3071 760.455 49.3071C761.013 49.3071 761.465 49.7591 761.465 50.3167Z" fill="currentColor"/>
  <path d="M777.624 50.3167C777.624 50.8743 777.172 51.3263 776.614 51.3263C776.056 51.3263 775.604 50.8743 775.604 50.3167C775.604 49.7591 776.056 49.3071 776.614 49.3071C777.172 49.3071 777.624 49.7591 777.624 50.3167Z" fill="currentColor"/>
  <path d="M793.782 50.3167C793.782 50.8743 793.33 51.3263 792.772 51.3263C792.215 51.3263 791.762 50.8743 791.762 50.3167C791.762 49.7591 792.215 49.3071 792.772 49.3071C793.33 49.3071 793.782 49.7591 793.782 50.3167Z" fill="currentColor"/>
  <path d="M809.941 50.3167C809.941 50.8743 809.488 51.3263 808.931 51.3263C808.373 51.3263 807.921 50.8743 807.921 50.3167C807.921 49.7591 808.373 49.3071 808.931 49.3071C809.488 49.3071 809.941 49.7591 809.941 50.3167Z" fill="currentColor"/>
  <path d="M826.099 50.3167C826.099 50.8743 825.647 51.3263 825.089 51.3263C824.531 51.3263 824.079 50.8743 824.079 50.3167C824.079 49.7591 824.531 49.3071 825.089 49.3071C825.647 49.3071 826.099 49.7591 826.099 50.3167Z" fill="currentColor"/>
  <path d="M842.257 50.3167C842.257 50.8743 841.805 51.3263 841.247 51.3263C840.69 51.3263 840.238 50.8743 840.238 50.3167C840.238 49.7591 840.69 49.3071 841.247 49.3071C841.805 49.3071 842.257 49.7591 842.257 50.3167Z" fill="currentColor"/>
  <path d="M858.416 50.3167C858.416 50.8743 857.964 51.3263 857.406 51.3263C856.848 51.3263 856.396 50.8743 856.396 50.3167C856.396 49.7591 856.848 49.3071 857.406 49.3071C857.964 49.3071 858.416 49.7591 858.416 50.3167Z" fill="currentColor"/>
  <path d="M874.574 50.3167C874.574 50.8743 874.122 51.3263 873.564 51.3263C873.007 51.3263 872.554 50.8743 872.554 50.3167C872.554 49.7591 873.007 49.3071 873.564 49.3071C874.122 49.3071 874.574 49.7591 874.574 50.3167Z" fill="currentColor"/>
  <path d="M890.733 50.3167C890.733 50.8743 890.28 51.3263 889.723 51.3263C889.165 51.3263 888.713 50.8743 888.713 50.3167C888.713 49.7591 889.165 49.3071 889.723 49.3071C890.28 49.3071 890.733 49.7591 890.733 50.3167Z" fill="currentColor"/>
  <path d="M906.891 50.3167C906.891 50.8743 906.439 51.3263 905.881 51.3263C905.323 51.3263 904.871 50.8743 904.871 50.3167C904.871 49.7591 905.323 49.3071 905.881 49.3071C906.439 49.3071 906.891 49.7591 906.891 50.3167Z" fill="currentColor"/>
  <path d="M923.049 50.3167C923.049 50.8743 922.597 51.3263 922.04 51.3263C921.482 51.3263 921.03 50.8743 921.03 50.3167C921.03 49.7591 921.482 49.3071 922.04 49.3071C922.597 49.3071 923.049 49.7591 923.049 50.3167Z" fill="currentColor"/>
  <path d="M939.208 50.3167C939.208 50.8743 938.756 51.3263 938.198 51.3263C937.64 51.3263 937.188 50.8743 937.188 50.3167C937.188 49.7591 937.64 49.3071 938.198 49.3071C938.756 49.3071 939.208 49.7591 939.208 50.3167Z" fill="currentColor"/>
  <path d="M955.366 50.3167C955.366 50.8743 954.914 51.3263 954.356 51.3263C953.799 51.3263 953.346 50.8743 953.346 50.3167C953.346 49.7591 953.799 49.3071 954.356 49.3071C954.914 49.3071 955.366 49.7591 955.366 50.3167Z" fill="currentColor"/>
  <path d="M971.525 50.3167C971.525 50.8743 971.073 51.3263 970.515 51.3263C969.957 51.3263 969.505 50.8743 969.505 50.3167C969.505 49.7591 969.957 49.3071 970.515 49.3071C971.073 49.3071 971.525 49.7591 971.525 50.3167Z" fill="currentColor"/>
  <path d="M987.683 50.3167C987.683 50.8743 987.231 51.3263 986.673 51.3263C986.115 51.3263 985.663 50.8743 985.663 50.3167C985.663 49.7591 986.115 49.3071 986.673 49.3071C987.231 49.3071 987.683 49.7591 987.683 50.3167Z" fill="currentColor"/>
  <path d="M1003.84 50.3167C1003.84 50.8743 1003.39 51.3263 1002.83 51.3263C1002.27 51.3263 1001.82 50.8743 1001.82 50.3167C1001.82 49.7591 1002.27 49.3071 1002.83 49.3071C1003.39 49.3071 1003.84 49.7591 1003.84 50.3167Z" fill="currentColor"/>
  <path d="M1020 50.3167C1020 50.8743 1019.55 51.3263 1018.99 51.3263C1018.43 51.3263 1017.98 50.8743 1017.98 50.3167C1017.98 49.7591 1018.43 49.3071 1018.99 49.3071C1019.55 49.3071 1020 49.7591 1020 50.3167Z" fill="currentColor"/>
  <path d="M2.0198 66.4702C2.0198 67.0278 1.56765 67.4798 1.0099 67.4798C0.452148 67.4798 0 67.0278 0 66.4702C0 65.9127 0.452148 65.4607 1.0099 65.4607C1.56765 65.4607 2.0198 65.9127 2.0198 66.4702Z" fill="currentColor"/>
  <path d="M18.1782 66.4702C18.1782 67.0278 17.7261 67.4798 17.1683 67.4798C16.6106 67.4798 16.1584 67.0278 16.1584 66.4702C16.1584 65.9127 16.6106 65.4607 17.1683 65.4607C17.7261 65.4607 18.1782 65.9127 18.1782 66.4702Z" fill="currentColor"/>
  <path d="M34.3366 66.4702C34.3366 67.0278 33.8845 67.4798 33.3267 67.4798C32.769 67.4798 32.3168 67.0278 32.3168 66.4702C32.3168 65.9127 32.769 65.4607 33.3267 65.4607C33.8845 65.4607 34.3366 65.9127 34.3366 66.4702Z" fill="currentColor"/>
  <path d="M50.495 66.4702C50.495 67.0278 50.0429 67.4798 49.4851 67.4798C48.9274 67.4798 48.4752 67.0278 48.4752 66.4702C48.4752 65.9127 48.9274 65.4607 49.4851 65.4607C50.0429 65.4607 50.495 65.9127 50.495 66.4702Z" fill="currentColor"/>
  <path d="M66.6535 66.4702C66.6535 67.0278 66.2013 67.4798 65.6436 67.4798C65.0858 67.4798 64.6337 67.0278 64.6337 66.4702C64.6337 65.9127 65.0858 65.4607 65.6436 65.4607C66.2013 65.4607 66.6535 65.9127 66.6535 66.4702Z" fill="currentColor"/>
  <path d="M82.8119 66.4702C82.8119 67.0278 82.3597 67.4798 81.802 67.4798C81.2442 67.4798 80.7921 67.0278 80.7921 66.4702C80.7921 65.9127 81.2442 65.4607 81.802 65.4607C82.3597 65.4607 82.8119 65.9127 82.8119 66.4702Z" fill="currentColor"/>
  <path d="M98.9703 66.4702C98.9703 67.0278 98.5181 67.4798 97.9604 67.4798C97.4026 67.4798 96.9505 67.0278 96.9505 66.4702C96.9505 65.9127 97.4026 65.4607 97.9604 65.4607C98.5181 65.4607 98.9703 65.9127 98.9703 66.4702Z" fill="currentColor"/>
  <path d="M115.129 66.4702C115.129 67.0278 114.677 67.4798 114.119 67.4798C113.561 67.4798 113.109 67.0278 113.109 66.4702C113.109 65.9127 113.561 65.4607 114.119 65.4607C114.677 65.4607 115.129 65.9127 115.129 66.4702Z" fill="currentColor"/>
  <path d="M131.287 66.4702C131.287 67.0278 130.835 67.4798 130.277 67.4798C129.719 67.4798 129.267 67.0278 129.267 66.4702C129.267 65.9127 129.719 65.4607 130.277 65.4607C130.835 65.4607 131.287 65.9127 131.287 66.4702Z" fill="currentColor"/>
  <path d="M147.446 66.4702C147.446 67.0278 146.993 67.4798 146.436 67.4798C145.878 67.4798 145.426 67.0278 145.426 66.4702C145.426 65.9127 145.878 65.4607 146.436 65.4607C146.993 65.4607 147.446 65.9127 147.446 66.4702Z" fill="currentColor"/>
  <path d="M163.604 66.4702C163.604 67.0278 163.152 67.4798 162.594 67.4798C162.036 67.4798 161.584 67.0278 161.584 66.4702C161.584 65.9127 162.036 65.4607 162.594 65.4607C163.152 65.4607 163.604 65.9127 163.604 66.4702Z" fill="currentColor"/>
  <path d="M179.762 66.4702C179.762 67.0278 179.31 67.4798 178.752 67.4798C178.195 67.4798 177.743 67.0278 177.743 66.4702C177.743 65.9127 178.195 65.4607 178.752 65.4607C179.31 65.4607 179.762 65.9127 179.762 66.4702Z" fill="currentColor"/>
  <path d="M195.921 66.4702C195.921 67.0278 195.469 67.4798 194.911 67.4798C194.353 67.4798 193.901 67.0278 193.901 66.4702C193.901 65.9127 194.353 65.4607 194.911 65.4607C195.469 65.4607 195.921 65.9127 195.921 66.4702Z" fill="currentColor"/>
  <path d="M212.079 66.4702C212.079 67.0278 211.627 67.4798 211.069 67.4798C210.512 67.4798 210.059 67.0278 210.059 66.4702C210.059 65.9127 210.512 65.4607 211.069 65.4607C211.627 65.4607 212.079 65.9127 212.079 66.4702Z" fill="currentColor"/>
  <path d="M228.238 66.4702C228.238 67.0278 227.785 67.4798 227.228 67.4798C226.67 67.4798 226.218 67.0278 226.218 66.4702C226.218 65.9127 226.67 65.4607 227.228 65.4607C227.785 65.4607 228.238 65.9127 228.238 66.4702Z" fill="currentColor"/>
  <path d="M244.396 66.4702C244.396 67.0278 243.944 67.4798 243.386 67.4798C242.828 67.4798 242.376 67.0278 242.376 66.4702C242.376 65.9127 242.828 65.4607 243.386 65.4607C243.944 65.4607 244.396 65.9127 244.396 66.4702Z" fill="currentColor"/>
  <path d="M260.554 66.4702C260.554 67.0278 260.102 67.4798 259.545 67.4798C258.987 67.4798 258.535 67.0278 258.535 66.4702C258.535 65.9127 258.987 65.4607 259.545 65.4607C260.102 65.4607 260.554 65.9127 260.554 66.4702Z" fill="currentColor"/>
  <path d="M276.713 66.4702C276.713 67.0278 276.261 67.4798 275.703 67.4798C275.145 67.4798 274.693 67.0278 274.693 66.4702C274.693 65.9127 275.145 65.4607 275.703 65.4607C276.261 65.4607 276.713 65.9127 276.713 66.4702Z" fill="currentColor"/>
  <path d="M292.871 66.4702C292.871 67.0278 292.419 67.4798 291.861 67.4798C291.304 67.4798 290.851 67.0278 290.851 66.4702C290.851 65.9127 291.304 65.4607 291.861 65.4607C292.419 65.4607 292.871 65.9127 292.871 66.4702Z" fill="currentColor"/>
  <path d="M309.03 66.4702C309.03 67.0278 308.578 67.4798 308.02 67.4798C307.462 67.4798 307.01 67.0278 307.01 66.4702C307.01 65.9127 307.462 65.4607 308.02 65.4607C308.578 65.4607 309.03 65.9127 309.03 66.4702Z" fill="currentColor"/>
  <path d="M325.188 66.4702C325.188 67.0278 324.736 67.4798 324.178 67.4798C323.62 67.4798 323.168 67.0278 323.168 66.4702C323.168 65.9127 323.62 65.4607 324.178 65.4607C324.736 65.4607 325.188 65.9127 325.188 66.4702Z" fill="currentColor"/>
  <path d="M341.347 66.4702C341.347 67.0278 340.894 67.4798 340.337 67.4798C339.779 67.4798 339.327 67.0278 339.327 66.4702C339.327 65.9127 339.779 65.4607 340.337 65.4607C340.894 65.4607 341.347 65.9127 341.347 66.4702Z" fill="currentColor"/>
  <path d="M357.505 66.4702C357.505 67.0278 357.053 67.4798 356.495 67.4798C355.937 67.4798 355.485 67.0278 355.485 66.4702C355.485 65.9127 355.937 65.4607 356.495 65.4607C357.053 65.4607 357.505 65.9127 357.505 66.4702Z" fill="currentColor"/>
  <path d="M373.663 66.4702C373.663 67.0278 373.211 67.4798 372.653 67.4798C372.096 67.4798 371.644 67.0278 371.644 66.4702C371.644 65.9127 372.096 65.4607 372.653 65.4607C373.211 65.4607 373.663 65.9127 373.663 66.4702Z" fill="currentColor"/>
  <path d="M389.822 66.4702C389.822 67.0278 389.37 67.4798 388.812 67.4798C388.254 67.4798 387.802 67.0278 387.802 66.4702C387.802 65.9127 388.254 65.4607 388.812 65.4607C389.37 65.4607 389.822 65.9127 389.822 66.4702Z" fill="currentColor"/>
  <path d="M405.98 66.4702C405.98 67.0278 405.528 67.4798 404.97 67.4798C404.413 67.4798 403.96 67.0278 403.96 66.4702C403.96 65.9127 404.413 65.4607 404.97 65.4607C405.528 65.4607 405.98 65.9127 405.98 66.4702Z" fill="currentColor"/>
  <path d="M422.139 66.4702C422.139 67.0278 421.686 67.4798 421.129 67.4798C420.571 67.4798 420.119 67.0278 420.119 66.4702C420.119 65.9127 420.571 65.4607 421.129 65.4607C421.686 65.4607 422.139 65.9127 422.139 66.4702Z" fill="currentColor"/>
  <path d="M438.297 66.4702C438.297 67.0278 437.845 67.4798 437.287 67.4798C436.729 67.4798 436.277 67.0278 436.277 66.4702C436.277 65.9127 436.729 65.4607 437.287 65.4607C437.845 65.4607 438.297 65.9127 438.297 66.4702Z" fill="currentColor"/>
  <path d="M454.455 66.4702C454.455 67.0278 454.003 67.4798 453.446 67.4798C452.888 67.4798 452.436 67.0278 452.436 66.4702C452.436 65.9127 452.888 65.4607 453.446 65.4607C454.003 65.4607 454.455 65.9127 454.455 66.4702Z" fill="currentColor"/>
  <path d="M470.614 66.4702C470.614 67.0278 470.162 67.4798 469.604 67.4798C469.046 67.4798 468.594 67.0278 468.594 66.4702C468.594 65.9127 469.046 65.4607 469.604 65.4607C470.162 65.4607 470.614 65.9127 470.614 66.4702Z" fill="currentColor"/>
  <path d="M486.772 66.4702C486.772 67.0278 486.32 67.4798 485.762 67.4798C485.205 67.4798 484.752 67.0278 484.752 66.4702C484.752 65.9127 485.205 65.4607 485.762 65.4607C486.32 65.4607 486.772 65.9127 486.772 66.4702Z" fill="currentColor"/>
  <path d="M502.931 66.4702C502.931 67.0278 502.479 67.4798 501.921 67.4798C501.363 67.4798 500.911 67.0278 500.911 66.4702C500.911 65.9127 501.363 65.4607 501.921 65.4607C502.479 65.4607 502.931 65.9127 502.931 66.4702Z" fill="currentColor"/>
  <path d="M519.089 66.4702C519.089 67.0278 518.637 67.4798 518.079 67.4798C517.521 67.4798 517.069 67.0278 517.069 66.4702C517.069 65.9127 517.521 65.4607 518.079 65.4607C518.637 65.4607 519.089 65.9127 519.089 66.4702Z" fill="currentColor"/>
  <path d="M535.247 66.4702C535.247 67.0278 534.795 67.4798 534.238 67.4798C533.68 67.4798 533.228 67.0278 533.228 66.4702C533.228 65.9127 533.68 65.4607 534.238 65.4607C534.795 65.4607 535.247 65.9127 535.247 66.4702Z" fill="currentColor"/>
  <path d="M551.406 66.4702C551.406 67.0278 550.954 67.4798 550.396 67.4798C549.838 67.4798 549.386 67.0278 549.386 66.4702C549.386 65.9127 549.838 65.4607 550.396 65.4607C550.954 65.4607 551.406 65.9127 551.406 66.4702Z" fill="currentColor"/>
  <path d="M567.564 66.4702C567.564 67.0278 567.112 67.4798 566.554 67.4798C565.997 67.4798 565.544 67.0278 565.544 66.4702C565.544 65.9127 565.997 65.4607 566.554 65.4607C567.112 65.4607 567.564 65.9127 567.564 66.4702Z" fill="currentColor"/>
  <path d="M583.723 66.4702C583.723 67.0278 583.271 67.4798 582.713 67.4798C582.155 67.4798 581.703 67.0278 581.703 66.4702C581.703 65.9127 582.155 65.4607 582.713 65.4607C583.271 65.4607 583.723 65.9127 583.723 66.4702Z" fill="currentColor"/>
  <path d="M599.881 66.4702C599.881 67.0278 599.429 67.4798 598.871 67.4798C598.313 67.4798 597.861 67.0278 597.861 66.4702C597.861 65.9127 598.313 65.4607 598.871 65.4607C599.429 65.4607 599.881 65.9127 599.881 66.4702Z" fill="currentColor"/>
  <path d="M616.04 66.4702C616.04 67.0278 615.587 67.4798 615.03 67.4798C614.472 67.4798 614.02 67.0278 614.02 66.4702C614.02 65.9127 614.472 65.4607 615.03 65.4607C615.587 65.4607 616.04 65.9127 616.04 66.4702Z" fill="currentColor"/>
  <path d="M632.198 66.4702C632.198 67.0278 631.746 67.4798 631.188 67.4798C630.63 67.4798 630.178 67.0278 630.178 66.4702C630.178 65.9127 630.63 65.4607 631.188 65.4607C631.746 65.4607 632.198 65.9127 632.198 66.4702Z" fill="currentColor"/>
  <path d="M648.356 66.4702C648.356 67.0278 647.904 67.4798 647.346 67.4798C646.789 67.4798 646.337 67.0278 646.337 66.4702C646.337 65.9127 646.789 65.4607 647.346 65.4607C647.904 65.4607 648.356 65.9127 648.356 66.4702Z" fill="currentColor"/>
  <path d="M664.515 66.4702C664.515 67.0278 664.063 67.4798 663.505 67.4798C662.947 67.4798 662.495 67.0278 662.495 66.4702C662.495 65.9127 662.947 65.4607 663.505 65.4607C664.063 65.4607 664.515 65.9127 664.515 66.4702Z" fill="currentColor"/>
  <path d="M680.673 66.4702C680.673 67.0278 680.221 67.4798 679.663 67.4798C679.106 67.4798 678.653 67.0278 678.653 66.4702C678.653 65.9127 679.106 65.4607 679.663 65.4607C680.221 65.4607 680.673 65.9127 680.673 66.4702Z" fill="currentColor"/>
  <path d="M696.832 66.4702C696.832 67.0278 696.38 67.4798 695.822 67.4798C695.264 67.4798 694.812 67.0278 694.812 66.4702C694.812 65.9127 695.264 65.4607 695.822 65.4607C696.38 65.4607 696.832 65.9127 696.832 66.4702Z" fill="currentColor"/>
  <path d="M712.99 66.4702C712.99 67.0278 712.538 67.4798 711.98 67.4798C711.422 67.4798 710.97 67.0278 710.97 66.4702C710.97 65.9127 711.422 65.4607 711.98 65.4607C712.538 65.4607 712.99 65.9127 712.99 66.4702Z" fill="currentColor"/>
  <path d="M729.148 66.4702C729.148 67.0278 728.696 67.4798 728.139 67.4798C727.581 67.4798 727.129 67.0278 727.129 66.4702C727.129 65.9127 727.581 65.4607 728.139 65.4607C728.696 65.4607 729.148 65.9127 729.148 66.4702Z" fill="currentColor"/>
  <path d="M745.307 66.4702C745.307 67.0278 744.855 67.4798 744.297 67.4798C743.739 67.4798 743.287 67.0278 743.287 66.4702C743.287 65.9127 743.739 65.4607 744.297 65.4607C744.855 65.4607 745.307 65.9127 745.307 66.4702Z" fill="currentColor"/>
  <path d="M761.465 66.4702C761.465 67.0278 761.013 67.4798 760.455 67.4798C759.898 67.4798 759.446 67.0278 759.446 66.4702C759.446 65.9127 759.898 65.4607 760.455 65.4607C761.013 65.4607 761.465 65.9127 761.465 66.4702Z" fill="currentColor"/>
  <path d="M777.624 66.4702C777.624 67.0278 777.172 67.4798 776.614 67.4798C776.056 67.4798 775.604 67.0278 775.604 66.4702C775.604 65.9127 776.056 65.4607 776.614 65.4607C777.172 65.4607 777.624 65.9127 777.624 66.4702Z" fill="currentColor"/>
  <path d="M793.782 66.4702C793.782 67.0278 793.33 67.4798 792.772 67.4798C792.215 67.4798 791.762 67.0278 791.762 66.4702C791.762 65.9127 792.215 65.4607 792.772 65.4607C793.33 65.4607 793.782 65.9127 793.782 66.4702Z" fill="currentColor"/>
  <path d="M809.941 66.4702C809.941 67.0278 809.488 67.4798 808.931 67.4798C808.373 67.4798 807.921 67.0278 807.921 66.4702C807.921 65.9127 808.373 65.4607 808.931 65.4607C809.488 65.4607 809.941 65.9127 809.941 66.4702Z" fill="currentColor"/>
  <path d="M826.099 66.4702C826.099 67.0278 825.647 67.4798 825.089 67.4798C824.531 67.4798 824.079 67.0278 824.079 66.4702C824.079 65.9127 824.531 65.4607 825.089 65.4607C825.647 65.4607 826.099 65.9127 826.099 66.4702Z" fill="currentColor"/>
  <path d="M842.257 66.4702C842.257 67.0278 841.805 67.4798 841.247 67.4798C840.69 67.4798 840.238 67.0278 840.238 66.4702C840.238 65.9127 840.69 65.4607 841.247 65.4607C841.805 65.4607 842.257 65.9127 842.257 66.4702Z" fill="currentColor"/>
  <path d="M858.416 66.4702C858.416 67.0278 857.964 67.4798 857.406 67.4798C856.848 67.4798 856.396 67.0278 856.396 66.4702C856.396 65.9127 856.848 65.4607 857.406 65.4607C857.964 65.4607 858.416 65.9127 858.416 66.4702Z" fill="currentColor"/>
  <path d="M874.574 66.4702C874.574 67.0278 874.122 67.4798 873.564 67.4798C873.007 67.4798 872.554 67.0278 872.554 66.4702C872.554 65.9127 873.007 65.4607 873.564 65.4607C874.122 65.4607 874.574 65.9127 874.574 66.4702Z" fill="currentColor"/>
  <path d="M890.733 66.4702C890.733 67.0278 890.28 67.4798 889.723 67.4798C889.165 67.4798 888.713 67.0278 888.713 66.4702C888.713 65.9127 889.165 65.4607 889.723 65.4607C890.28 65.4607 890.733 65.9127 890.733 66.4702Z" fill="currentColor"/>
  <path d="M906.891 66.4702C906.891 67.0278 906.439 67.4798 905.881 67.4798C905.323 67.4798 904.871 67.0278 904.871 66.4702C904.871 65.9127 905.323 65.4607 905.881 65.4607C906.439 65.4607 906.891 65.9127 906.891 66.4702Z" fill="currentColor"/>
  <path d="M923.049 66.4702C923.049 67.0278 922.597 67.4798 922.04 67.4798C921.482 67.4798 921.03 67.0278 921.03 66.4702C921.03 65.9127 921.482 65.4607 922.04 65.4607C922.597 65.4607 923.049 65.9127 923.049 66.4702Z" fill="currentColor"/>
  <path d="M939.208 66.4702C939.208 67.0278 938.756 67.4798 938.198 67.4798C937.64 67.4798 937.188 67.0278 937.188 66.4702C937.188 65.9127 937.64 65.4607 938.198 65.4607C938.756 65.4607 939.208 65.9127 939.208 66.4702Z" fill="currentColor"/>
  <path d="M955.366 66.4702C955.366 67.0278 954.914 67.4798 954.356 67.4798C953.799 67.4798 953.346 67.0278 953.346 66.4702C953.346 65.9127 953.799 65.4607 954.356 65.4607C954.914 65.4607 955.366 65.9127 955.366 66.4702Z" fill="currentColor"/>
  <path d="M971.525 66.4702C971.525 67.0278 971.073 67.4798 970.515 67.4798C969.957 67.4798 969.505 67.0278 969.505 66.4702C969.505 65.9127 969.957 65.4607 970.515 65.4607C971.073 65.4607 971.525 65.9127 971.525 66.4702Z" fill="currentColor"/>
  <path d="M987.683 66.4702C987.683 67.0278 987.231 67.4798 986.673 67.4798C986.115 67.4798 985.663 67.0278 985.663 66.4702C985.663 65.9127 986.115 65.4607 986.673 65.4607C987.231 65.4607 987.683 65.9127 987.683 66.4702Z" fill="currentColor"/>
  <path d="M1003.84 66.4702C1003.84 67.0278 1003.39 67.4798 1002.83 67.4798C1002.27 67.4798 1001.82 67.0278 1001.82 66.4702C1001.82 65.9127 1002.27 65.4607 1002.83 65.4607C1003.39 65.4607 1003.84 65.9127 1003.84 66.4702Z" fill="currentColor"/>
  <path d="M1020 66.4702C1020 67.0278 1019.55 67.4798 1018.99 67.4798C1018.43 67.4798 1017.98 67.0278 1017.98 66.4702C1017.98 65.9127 1018.43 65.4607 1018.99 65.4607C1019.55 65.4607 1020 65.9127 1020 66.4702Z" fill="currentColor"/>
  <path d="M2.0198 82.6238C2.0198 83.1814 1.56765 83.6334 1.0099 83.6334C0.452148 83.6334 0 83.1814 0 82.6238C0 82.0662 0.452148 81.6142 1.0099 81.6142C1.56765 81.6142 2.0198 82.0662 2.0198 82.6238Z" fill="currentColor"/>
  <path d="M18.1782 82.6238C18.1782 83.1814 17.7261 83.6334 17.1683 83.6334C16.6106 83.6334 16.1584 83.1814 16.1584 82.6238C16.1584 82.0662 16.6106 81.6142 17.1683 81.6142C17.7261 81.6142 18.1782 82.0662 18.1782 82.6238Z" fill="currentColor"/>
  <path d="M34.3366 82.6238C34.3366 83.1814 33.8845 83.6334 33.3267 83.6334C32.769 83.6334 32.3168 83.1814 32.3168 82.6238C32.3168 82.0662 32.769 81.6142 33.3267 81.6142C33.8845 81.6142 34.3366 82.0662 34.3366 82.6238Z" fill="currentColor"/>
  <path d="M50.495 82.6238C50.495 83.1814 50.0429 83.6334 49.4851 83.6334C48.9274 83.6334 48.4752 83.1814 48.4752 82.6238C48.4752 82.0662 48.9274 81.6142 49.4851 81.6142C50.0429 81.6142 50.495 82.0662 50.495 82.6238Z" fill="currentColor"/>
  <path d="M66.6535 82.6238C66.6535 83.1814 66.2013 83.6334 65.6436 83.6334C65.0858 83.6334 64.6337 83.1814 64.6337 82.6238C64.6337 82.0662 65.0858 81.6142 65.6436 81.6142C66.2013 81.6142 66.6535 82.0662 66.6535 82.6238Z" fill="currentColor"/>
  <path d="M82.8119 82.6238C82.8119 83.1814 82.3597 83.6334 81.802 83.6334C81.2442 83.6334 80.7921 83.1814 80.7921 82.6238C80.7921 82.0662 81.2442 81.6142 81.802 81.6142C82.3597 81.6142 82.8119 82.0662 82.8119 82.6238Z" fill="currentColor"/>
  <path d="M98.9703 82.6238C98.9703 83.1814 98.5181 83.6334 97.9604 83.6334C97.4026 83.6334 96.9505 83.1814 96.9505 82.6238C96.9505 82.0662 97.4026 81.6142 97.9604 81.6142C98.5181 81.6142 98.9703 82.0662 98.9703 82.6238Z" fill="currentColor"/>
  <path d="M115.129 82.6238C115.129 83.1814 114.677 83.6334 114.119 83.6334C113.561 83.6334 113.109 83.1814 113.109 82.6238C113.109 82.0662 113.561 81.6142 114.119 81.6142C114.677 81.6142 115.129 82.0662 115.129 82.6238Z" fill="currentColor"/>
  <path d="M131.287 82.6238C131.287 83.1814 130.835 83.6334 130.277 83.6334C129.719 83.6334 129.267 83.1814 129.267 82.6238C129.267 82.0662 129.719 81.6142 130.277 81.6142C130.835 81.6142 131.287 82.0662 131.287 82.6238Z" fill="currentColor"/>
  <path d="M147.446 82.6238C147.446 83.1814 146.993 83.6334 146.436 83.6334C145.878 83.6334 145.426 83.1814 145.426 82.6238C145.426 82.0662 145.878 81.6142 146.436 81.6142C146.993 81.6142 147.446 82.0662 147.446 82.6238Z" fill="currentColor"/>
  <path d="M163.604 82.6238C163.604 83.1814 163.152 83.6334 162.594 83.6334C162.036 83.6334 161.584 83.1814 161.584 82.6238C161.584 82.0662 162.036 81.6142 162.594 81.6142C163.152 81.6142 163.604 82.0662 163.604 82.6238Z" fill="currentColor"/>
  <path d="M179.762 82.6238C179.762 83.1814 179.31 83.6334 178.752 83.6334C178.195 83.6334 177.743 83.1814 177.743 82.6238C177.743 82.0662 178.195 81.6142 178.752 81.6142C179.31 81.6142 179.762 82.0662 179.762 82.6238Z" fill="currentColor"/>
  <path d="M195.921 82.6238C195.921 83.1814 195.469 83.6334 194.911 83.6334C194.353 83.6334 193.901 83.1814 193.901 82.6238C193.901 82.0662 194.353 81.6142 194.911 81.6142C195.469 81.6142 195.921 82.0662 195.921 82.6238Z" fill="currentColor"/>
  <path d="M212.079 82.6238C212.079 83.1814 211.627 83.6334 211.069 83.6334C210.512 83.6334 210.059 83.1814 210.059 82.6238C210.059 82.0662 210.512 81.6142 211.069 81.6142C211.627 81.6142 212.079 82.0662 212.079 82.6238Z" fill="currentColor"/>
  <path d="M228.238 82.6238C228.238 83.1814 227.785 83.6334 227.228 83.6334C226.67 83.6334 226.218 83.1814 226.218 82.6238C226.218 82.0662 226.67 81.6142 227.228 81.6142C227.785 81.6142 228.238 82.0662 228.238 82.6238Z" fill="currentColor"/>
  <path d="M244.396 82.6238C244.396 83.1814 243.944 83.6334 243.386 83.6334C242.828 83.6334 242.376 83.1814 242.376 82.6238C242.376 82.0662 242.828 81.6142 243.386 81.6142C243.944 81.6142 244.396 82.0662 244.396 82.6238Z" fill="currentColor"/>
  <path d="M260.554 82.6238C260.554 83.1814 260.102 83.6334 259.545 83.6334C258.987 83.6334 258.535 83.1814 258.535 82.6238C258.535 82.0662 258.987 81.6142 259.545 81.6142C260.102 81.6142 260.554 82.0662 260.554 82.6238Z" fill="currentColor"/>
  <path d="M276.713 82.6238C276.713 83.1814 276.261 83.6334 275.703 83.6334C275.145 83.6334 274.693 83.1814 274.693 82.6238C274.693 82.0662 275.145 81.6142 275.703 81.6142C276.261 81.6142 276.713 82.0662 276.713 82.6238Z" fill="currentColor"/>
  <path d="M292.871 82.6238C292.871 83.1814 292.419 83.6334 291.861 83.6334C291.304 83.6334 290.851 83.1814 290.851 82.6238C290.851 82.0662 291.304 81.6142 291.861 81.6142C292.419 81.6142 292.871 82.0662 292.871 82.6238Z" fill="currentColor"/>
  <path d="M309.03 82.6238C309.03 83.1814 308.578 83.6334 308.02 83.6334C307.462 83.6334 307.01 83.1814 307.01 82.6238C307.01 82.0662 307.462 81.6142 308.02 81.6142C308.578 81.6142 309.03 82.0662 309.03 82.6238Z" fill="currentColor"/>
  <path d="M325.188 82.6238C325.188 83.1814 324.736 83.6334 324.178 83.6334C323.62 83.6334 323.168 83.1814 323.168 82.6238C323.168 82.0662 323.62 81.6142 324.178 81.6142C324.736 81.6142 325.188 82.0662 325.188 82.6238Z" fill="currentColor"/>
  <path d="M341.347 82.6238C341.347 83.1814 340.894 83.6334 340.337 83.6334C339.779 83.6334 339.327 83.1814 339.327 82.6238C339.327 82.0662 339.779 81.6142 340.337 81.6142C340.894 81.6142 341.347 82.0662 341.347 82.6238Z" fill="currentColor"/>
  <path d="M357.505 82.6238C357.505 83.1814 357.053 83.6334 356.495 83.6334C355.937 83.6334 355.485 83.1814 355.485 82.6238C355.485 82.0662 355.937 81.6142 356.495 81.6142C357.053 81.6142 357.505 82.0662 357.505 82.6238Z" fill="currentColor"/>
  <path d="M373.663 82.6238C373.663 83.1814 373.211 83.6334 372.653 83.6334C372.096 83.6334 371.644 83.1814 371.644 82.6238C371.644 82.0662 372.096 81.6142 372.653 81.6142C373.211 81.6142 373.663 82.0662 373.663 82.6238Z" fill="currentColor"/>
  <path d="M389.822 82.6238C389.822 83.1814 389.37 83.6334 388.812 83.6334C388.254 83.6334 387.802 83.1814 387.802 82.6238C387.802 82.0662 388.254 81.6142 388.812 81.6142C389.37 81.6142 389.822 82.0662 389.822 82.6238Z" fill="currentColor"/>
  <path d="M405.98 82.6238C405.98 83.1814 405.528 83.6334 404.97 83.6334C404.413 83.6334 403.96 83.1814 403.96 82.6238C403.96 82.0662 404.413 81.6142 404.97 81.6142C405.528 81.6142 405.98 82.0662 405.98 82.6238Z" fill="currentColor"/>
  <path d="M422.139 82.6238C422.139 83.1814 421.686 83.6334 421.129 83.6334C420.571 83.6334 420.119 83.1814 420.119 82.6238C420.119 82.0662 420.571 81.6142 421.129 81.6142C421.686 81.6142 422.139 82.0662 422.139 82.6238Z" fill="currentColor"/>
  <path d="M438.297 82.6238C438.297 83.1814 437.845 83.6334 437.287 83.6334C436.729 83.6334 436.277 83.1814 436.277 82.6238C436.277 82.0662 436.729 81.6142 437.287 81.6142C437.845 81.6142 438.297 82.0662 438.297 82.6238Z" fill="currentColor"/>
  <path d="M454.455 82.6238C454.455 83.1814 454.003 83.6334 453.446 83.6334C452.888 83.6334 452.436 83.1814 452.436 82.6238C452.436 82.0662 452.888 81.6142 453.446 81.6142C454.003 81.6142 454.455 82.0662 454.455 82.6238Z" fill="currentColor"/>
  <path d="M470.614 82.6238C470.614 83.1814 470.162 83.6334 469.604 83.6334C469.046 83.6334 468.594 83.1814 468.594 82.6238C468.594 82.0662 469.046 81.6142 469.604 81.6142C470.162 81.6142 470.614 82.0662 470.614 82.6238Z" fill="currentColor"/>
  <path d="M486.772 82.6238C486.772 83.1814 486.32 83.6334 485.762 83.6334C485.205 83.6334 484.752 83.1814 484.752 82.6238C484.752 82.0662 485.205 81.6142 485.762 81.6142C486.32 81.6142 486.772 82.0662 486.772 82.6238Z" fill="currentColor"/>
  <path d="M502.931 82.6238C502.931 83.1814 502.479 83.6334 501.921 83.6334C501.363 83.6334 500.911 83.1814 500.911 82.6238C500.911 82.0662 501.363 81.6142 501.921 81.6142C502.479 81.6142 502.931 82.0662 502.931 82.6238Z" fill="currentColor"/>
  <path d="M519.089 82.6238C519.089 83.1814 518.637 83.6334 518.079 83.6334C517.521 83.6334 517.069 83.1814 517.069 82.6238C517.069 82.0662 517.521 81.6142 518.079 81.6142C518.637 81.6142 519.089 82.0662 519.089 82.6238Z" fill="currentColor"/>
  <path d="M535.247 82.6238C535.247 83.1814 534.795 83.6334 534.238 83.6334C533.68 83.6334 533.228 83.1814 533.228 82.6238C533.228 82.0662 533.68 81.6142 534.238 81.6142C534.795 81.6142 535.247 82.0662 535.247 82.6238Z" fill="currentColor"/>
  <path d="M551.406 82.6238C551.406 83.1814 550.954 83.6334 550.396 83.6334C549.838 83.6334 549.386 83.1814 549.386 82.6238C549.386 82.0662 549.838 81.6142 550.396 81.6142C550.954 81.6142 551.406 82.0662 551.406 82.6238Z" fill="currentColor"/>
  <path d="M567.564 82.6238C567.564 83.1814 567.112 83.6334 566.554 83.6334C565.997 83.6334 565.544 83.1814 565.544 82.6238C565.544 82.0662 565.997 81.6142 566.554 81.6142C567.112 81.6142 567.564 82.0662 567.564 82.6238Z" fill="currentColor"/>
  <path d="M583.723 82.6238C583.723 83.1814 583.271 83.6334 582.713 83.6334C582.155 83.6334 581.703 83.1814 581.703 82.6238C581.703 82.0662 582.155 81.6142 582.713 81.6142C583.271 81.6142 583.723 82.0662 583.723 82.6238Z" fill="currentColor"/>
  <path d="M599.881 82.6238C599.881 83.1814 599.429 83.6334 598.871 83.6334C598.313 83.6334 597.861 83.1814 597.861 82.6238C597.861 82.0662 598.313 81.6142 598.871 81.6142C599.429 81.6142 599.881 82.0662 599.881 82.6238Z" fill="currentColor"/>
  <path d="M616.04 82.6238C616.04 83.1814 615.587 83.6334 615.03 83.6334C614.472 83.6334 614.02 83.1814 614.02 82.6238C614.02 82.0662 614.472 81.6142 615.03 81.6142C615.587 81.6142 616.04 82.0662 616.04 82.6238Z" fill="currentColor"/>
  <path d="M632.198 82.6238C632.198 83.1814 631.746 83.6334 631.188 83.6334C630.63 83.6334 630.178 83.1814 630.178 82.6238C630.178 82.0662 630.63 81.6142 631.188 81.6142C631.746 81.6142 632.198 82.0662 632.198 82.6238Z" fill="currentColor"/>
  <path d="M648.356 82.6238C648.356 83.1814 647.904 83.6334 647.346 83.6334C646.789 83.6334 646.337 83.1814 646.337 82.6238C646.337 82.0662 646.789 81.6142 647.346 81.6142C647.904 81.6142 648.356 82.0662 648.356 82.6238Z" fill="currentColor"/>
  <path d="M664.515 82.6238C664.515 83.1814 664.063 83.6334 663.505 83.6334C662.947 83.6334 662.495 83.1814 662.495 82.6238C662.495 82.0662 662.947 81.6142 663.505 81.6142C664.063 81.6142 664.515 82.0662 664.515 82.6238Z" fill="currentColor"/>
  <path d="M680.673 82.6238C680.673 83.1814 680.221 83.6334 679.663 83.6334C679.106 83.6334 678.653 83.1814 678.653 82.6238C678.653 82.0662 679.106 81.6142 679.663 81.6142C680.221 81.6142 680.673 82.0662 680.673 82.6238Z" fill="currentColor"/>
  <path d="M696.832 82.6238C696.832 83.1814 696.38 83.6334 695.822 83.6334C695.264 83.6334 694.812 83.1814 694.812 82.6238C694.812 82.0662 695.264 81.6142 695.822 81.6142C696.38 81.6142 696.832 82.0662 696.832 82.6238Z" fill="currentColor"/>
  <path d="M712.99 82.6238C712.99 83.1814 712.538 83.6334 711.98 83.6334C711.422 83.6334 710.97 83.1814 710.97 82.6238C710.97 82.0662 711.422 81.6142 711.98 81.6142C712.538 81.6142 712.99 82.0662 712.99 82.6238Z" fill="currentColor"/>
  <path d="M729.148 82.6238C729.148 83.1814 728.696 83.6334 728.139 83.6334C727.581 83.6334 727.129 83.1814 727.129 82.6238C727.129 82.0662 727.581 81.6142 728.139 81.6142C728.696 81.6142 729.148 82.0662 729.148 82.6238Z" fill="currentColor"/>
  <path d="M745.307 82.6238C745.307 83.1814 744.855 83.6334 744.297 83.6334C743.739 83.6334 743.287 83.1814 743.287 82.6238C743.287 82.0662 743.739 81.6142 744.297 81.6142C744.855 81.6142 745.307 82.0662 745.307 82.6238Z" fill="currentColor"/>
  <path d="M761.465 82.6238C761.465 83.1814 761.013 83.6334 760.455 83.6334C759.898 83.6334 759.446 83.1814 759.446 82.6238C759.446 82.0662 759.898 81.6142 760.455 81.6142C761.013 81.6142 761.465 82.0662 761.465 82.6238Z" fill="currentColor"/>
  <path d="M777.624 82.6238C777.624 83.1814 777.172 83.6334 776.614 83.6334C776.056 83.6334 775.604 83.1814 775.604 82.6238C775.604 82.0662 776.056 81.6142 776.614 81.6142C777.172 81.6142 777.624 82.0662 777.624 82.6238Z" fill="currentColor"/>
  <path d="M793.782 82.6238C793.782 83.1814 793.33 83.6334 792.772 83.6334C792.215 83.6334 791.762 83.1814 791.762 82.6238C791.762 82.0662 792.215 81.6142 792.772 81.6142C793.33 81.6142 793.782 82.0662 793.782 82.6238Z" fill="currentColor"/>
  <path d="M809.941 82.6238C809.941 83.1814 809.488 83.6334 808.931 83.6334C808.373 83.6334 807.921 83.1814 807.921 82.6238C807.921 82.0662 808.373 81.6142 808.931 81.6142C809.488 81.6142 809.941 82.0662 809.941 82.6238Z" fill="currentColor"/>
  <path d="M826.099 82.6238C826.099 83.1814 825.647 83.6334 825.089 83.6334C824.531 83.6334 824.079 83.1814 824.079 82.6238C824.079 82.0662 824.531 81.6142 825.089 81.6142C825.647 81.6142 826.099 82.0662 826.099 82.6238Z" fill="currentColor"/>
  <path d="M842.257 82.6238C842.257 83.1814 841.805 83.6334 841.247 83.6334C840.69 83.6334 840.238 83.1814 840.238 82.6238C840.238 82.0662 840.69 81.6142 841.247 81.6142C841.805 81.6142 842.257 82.0662 842.257 82.6238Z" fill="currentColor"/>
  <path d="M858.416 82.6238C858.416 83.1814 857.964 83.6334 857.406 83.6334C856.848 83.6334 856.396 83.1814 856.396 82.6238C856.396 82.0662 856.848 81.6142 857.406 81.6142C857.964 81.6142 858.416 82.0662 858.416 82.6238Z" fill="currentColor"/>
  <path d="M874.574 82.6238C874.574 83.1814 874.122 83.6334 873.564 83.6334C873.007 83.6334 872.554 83.1814 872.554 82.6238C872.554 82.0662 873.007 81.6142 873.564 81.6142C874.122 81.6142 874.574 82.0662 874.574 82.6238Z" fill="currentColor"/>
  <path d="M890.733 82.6238C890.733 83.1814 890.28 83.6334 889.723 83.6334C889.165 83.6334 888.713 83.1814 888.713 82.6238C888.713 82.0662 889.165 81.6142 889.723 81.6142C890.28 81.6142 890.733 82.0662 890.733 82.6238Z" fill="currentColor"/>
  <path d="M906.891 82.6238C906.891 83.1814 906.439 83.6334 905.881 83.6334C905.323 83.6334 904.871 83.1814 904.871 82.6238C904.871 82.0662 905.323 81.6142 905.881 81.6142C906.439 81.6142 906.891 82.0662 906.891 82.6238Z" fill="currentColor"/>
  <path d="M923.049 82.6238C923.049 83.1814 922.597 83.6334 922.04 83.6334C921.482 83.6334 921.03 83.1814 921.03 82.6238C921.03 82.0662 921.482 81.6142 922.04 81.6142C922.597 81.6142 923.049 82.0662 923.049 82.6238Z" fill="currentColor"/>
  <path d="M939.208 82.6238C939.208 83.1814 938.756 83.6334 938.198 83.6334C937.64 83.6334 937.188 83.1814 937.188 82.6238C937.188 82.0662 937.64 81.6142 938.198 81.6142C938.756 81.6142 939.208 82.0662 939.208 82.6238Z" fill="currentColor"/>
  <path d="M955.366 82.6238C955.366 83.1814 954.914 83.6334 954.356 83.6334C953.799 83.6334 953.346 83.1814 953.346 82.6238C953.346 82.0662 953.799 81.6142 954.356 81.6142C954.914 81.6142 955.366 82.0662 955.366 82.6238Z" fill="currentColor"/>
  <path d="M971.525 82.6238C971.525 83.1814 971.073 83.6334 970.515 83.6334C969.957 83.6334 969.505 83.1814 969.505 82.6238C969.505 82.0662 969.957 81.6142 970.515 81.6142C971.073 81.6142 971.525 82.0662 971.525 82.6238Z" fill="currentColor"/>
  <path d="M987.683 82.6238C987.683 83.1814 987.231 83.6334 986.673 83.6334C986.115 83.6334 985.663 83.1814 985.663 82.6238C985.663 82.0662 986.115 81.6142 986.673 81.6142C987.231 81.6142 987.683 82.0662 987.683 82.6238Z" fill="currentColor"/>
  <path d="M1003.84 82.6238C1003.84 83.1814 1003.39 83.6334 1002.83 83.6334C1002.27 83.6334 1001.82 83.1814 1001.82 82.6238C1001.82 82.0662 1002.27 81.6142 1002.83 81.6142C1003.39 81.6142 1003.84 82.0662 1003.84 82.6238Z" fill="currentColor"/>
  <path d="M1020 82.6238C1020 83.1814 1019.55 83.6334 1018.99 83.6334C1018.43 83.6334 1017.98 83.1814 1017.98 82.6238C1017.98 82.0662 1018.43 81.6142 1018.99 81.6142C1019.55 81.6142 1020 82.0662 1020 82.6238Z" fill="currentColor"/>
  <path d="M2.0198 1.0096C2.0198 1.56718 1.56765 2.01919 1.0099 2.01919C0.452148 2.01919 0 1.56718 0 1.0096C0 0.452012 0.452148 0 1.0099 0C1.56765 0 2.0198 0.452012 2.0198 1.0096Z" fill="currentColor"/>
  <path d="M18.1782 1.0096C18.1782 1.56718 17.7261 2.01919 17.1683 2.01919C16.6106 2.01919 16.1584 1.56718 16.1584 1.0096C16.1584 0.452012 16.6106 0 17.1683 0C17.7261 0 18.1782 0.452012 18.1782 1.0096Z" fill="currentColor"/>
  <path d="M34.3366 1.0096C34.3366 1.56718 33.8845 2.01919 33.3267 2.01919C32.769 2.01919 32.3168 1.56718 32.3168 1.0096C32.3168 0.452012 32.769 0 33.3267 0C33.8845 0 34.3366 0.452012 34.3366 1.0096Z" fill="currentColor"/>
  <path d="M50.495 1.0096C50.495 1.56718 50.0429 2.01919 49.4851 2.01919C48.9274 2.01919 48.4752 1.56718 48.4752 1.0096C48.4752 0.452012 48.9274 0 49.4851 0C50.0429 0 50.495 0.452012 50.495 1.0096Z" fill="currentColor"/>
  <path d="M66.6535 1.0096C66.6535 1.56718 66.2013 2.01919 65.6436 2.01919C65.0858 2.01919 64.6337 1.56718 64.6337 1.0096C64.6337 0.452012 65.0858 0 65.6436 0C66.2013 0 66.6535 0.452012 66.6535 1.0096Z" fill="currentColor"/>
  <path d="M82.8119 1.0096C82.8119 1.56718 82.3597 2.01919 81.802 2.01919C81.2442 2.01919 80.7921 1.56718 80.7921 1.0096C80.7921 0.452012 81.2442 0 81.802 0C82.3597 0 82.8119 0.452012 82.8119 1.0096Z" fill="currentColor"/>
  <path d="M98.9703 1.0096C98.9703 1.56718 98.5181 2.01919 97.9604 2.01919C97.4026 2.01919 96.9505 1.56718 96.9505 1.0096C96.9505 0.452012 97.4026 0 97.9604 0C98.5181 0 98.9703 0.452012 98.9703 1.0096Z" fill="currentColor"/>
  <path d="M115.129 1.0096C115.129 1.56718 114.677 2.01919 114.119 2.01919C113.561 2.01919 113.109 1.56718 113.109 1.0096C113.109 0.452012 113.561 0 114.119 0C114.677 0 115.129 0.452012 115.129 1.0096Z" fill="currentColor"/>
  <path d="M131.287 1.0096C131.287 1.56718 130.835 2.01919 130.277 2.01919C129.719 2.01919 129.267 1.56718 129.267 1.0096C129.267 0.452012 129.719 0 130.277 0C130.835 0 131.287 0.452012 131.287 1.0096Z" fill="currentColor"/>
  <path d="M147.446 1.0096C147.446 1.56718 146.993 2.01919 146.436 2.01919C145.878 2.01919 145.426 1.56718 145.426 1.0096C145.426 0.452012 145.878 0 146.436 0C146.993 0 147.446 0.452012 147.446 1.0096Z" fill="currentColor"/>
  <path d="M163.604 1.0096C163.604 1.56718 163.152 2.01919 162.594 2.01919C162.036 2.01919 161.584 1.56718 161.584 1.0096C161.584 0.452012 162.036 0 162.594 0C163.152 0 163.604 0.452012 163.604 1.0096Z" fill="currentColor"/>
  <path d="M179.762 1.0096C179.762 1.56718 179.31 2.01919 178.752 2.01919C178.195 2.01919 177.743 1.56718 177.743 1.0096C177.743 0.452012 178.195 0 178.752 0C179.31 0 179.762 0.452012 179.762 1.0096Z" fill="currentColor"/>
  <path d="M195.921 1.0096C195.921 1.56718 195.469 2.01919 194.911 2.01919C194.353 2.01919 193.901 1.56718 193.901 1.0096C193.901 0.452012 194.353 0 194.911 0C195.469 0 195.921 0.452012 195.921 1.0096Z" fill="currentColor"/>
  <path d="M212.079 1.0096C212.079 1.56718 211.627 2.01919 211.069 2.01919C210.512 2.01919 210.059 1.56718 210.059 1.0096C210.059 0.452012 210.512 0 211.069 0C211.627 0 212.079 0.452012 212.079 1.0096Z" fill="currentColor"/>
  <path d="M228.238 1.0096C228.238 1.56718 227.785 2.01919 227.228 2.01919C226.67 2.01919 226.218 1.56718 226.218 1.0096C226.218 0.452012 226.67 0 227.228 0C227.785 0 228.238 0.452012 228.238 1.0096Z" fill="currentColor"/>
  <path d="M244.396 1.0096C244.396 1.56718 243.944 2.01919 243.386 2.01919C242.828 2.01919 242.376 1.56718 242.376 1.0096C242.376 0.452012 242.828 0 243.386 0C243.944 0 244.396 0.452012 244.396 1.0096Z" fill="currentColor"/>
  <path d="M260.554 1.0096C260.554 1.56718 260.102 2.01919 259.545 2.01919C258.987 2.01919 258.535 1.56718 258.535 1.0096C258.535 0.452012 258.987 0 259.545 0C260.102 0 260.554 0.452012 260.554 1.0096Z" fill="currentColor"/>
  <path d="M276.713 1.0096C276.713 1.56718 276.261 2.01919 275.703 2.01919C275.145 2.01919 274.693 1.56718 274.693 1.0096C274.693 0.452012 275.145 0 275.703 0C276.261 0 276.713 0.452012 276.713 1.0096Z" fill="currentColor"/>
  <path d="M292.871 1.0096C292.871 1.56718 292.419 2.01919 291.861 2.01919C291.304 2.01919 290.851 1.56718 290.851 1.0096C290.851 0.452012 291.304 0 291.861 0C292.419 0 292.871 0.452012 292.871 1.0096Z" fill="currentColor"/>
  <path d="M309.03 1.0096C309.03 1.56718 308.578 2.01919 308.02 2.01919C307.462 2.01919 307.01 1.56718 307.01 1.0096C307.01 0.452012 307.462 0 308.02 0C308.578 0 309.03 0.452012 309.03 1.0096Z" fill="currentColor"/>
  <path d="M325.188 1.0096C325.188 1.56718 324.736 2.01919 324.178 2.01919C323.62 2.01919 323.168 1.56718 323.168 1.0096C323.168 0.452012 323.62 0 324.178 0C324.736 0 325.188 0.452012 325.188 1.0096Z" fill="currentColor"/>
  <path d="M341.347 1.0096C341.347 1.56718 340.894 2.01919 340.337 2.01919C339.779 2.01919 339.327 1.56718 339.327 1.0096C339.327 0.452012 339.779 0 340.337 0C340.894 0 341.347 0.452012 341.347 1.0096Z" fill="currentColor"/>
  <path d="M357.505 1.0096C357.505 1.56718 357.053 2.01919 356.495 2.01919C355.937 2.01919 355.485 1.56718 355.485 1.0096C355.485 0.452012 355.937 0 356.495 0C357.053 0 357.505 0.452012 357.505 1.0096Z" fill="currentColor"/>
  <path d="M373.663 1.0096C373.663 1.56718 373.211 2.01919 372.653 2.01919C372.096 2.01919 371.644 1.56718 371.644 1.0096C371.644 0.452012 372.096 0 372.653 0C373.211 0 373.663 0.452012 373.663 1.0096Z" fill="currentColor"/>
  <path d="M389.822 1.0096C389.822 1.56718 389.37 2.01919 388.812 2.01919C388.254 2.01919 387.802 1.56718 387.802 1.0096C387.802 0.452012 388.254 0 388.812 0C389.37 0 389.822 0.452012 389.822 1.0096Z" fill="currentColor"/>
  <path d="M405.98 1.0096C405.98 1.56718 405.528 2.01919 404.97 2.01919C404.413 2.01919 403.96 1.56718 403.96 1.0096C403.96 0.452012 404.413 0 404.97 0C405.528 0 405.98 0.452012 405.98 1.0096Z" fill="currentColor"/>
  <path d="M422.139 1.0096C422.139 1.56718 421.686 2.01919 421.129 2.01919C420.571 2.01919 420.119 1.56718 420.119 1.0096C420.119 0.452012 420.571 0 421.129 0C421.686 0 422.139 0.452012 422.139 1.0096Z" fill="currentColor"/>
  <path d="M438.297 1.0096C438.297 1.56718 437.845 2.01919 437.287 2.01919C436.729 2.01919 436.277 1.56718 436.277 1.0096C436.277 0.452012 436.729 0 437.287 0C437.845 0 438.297 0.452012 438.297 1.0096Z" fill="currentColor"/>
  <path d="M454.455 1.0096C454.455 1.56718 454.003 2.01919 453.446 2.01919C452.888 2.01919 452.436 1.56718 452.436 1.0096C452.436 0.452012 452.888 0 453.446 0C454.003 0 454.455 0.452012 454.455 1.0096Z" fill="currentColor"/>
  <path d="M470.614 1.0096C470.614 1.56718 470.162 2.01919 469.604 2.01919C469.046 2.01919 468.594 1.56718 468.594 1.0096C468.594 0.452012 469.046 0 469.604 0C470.162 0 470.614 0.452012 470.614 1.0096Z" fill="currentColor"/>
  <path d="M486.772 1.0096C486.772 1.56718 486.32 2.01919 485.762 2.01919C485.205 2.01919 484.752 1.56718 484.752 1.0096C484.752 0.452012 485.205 0 485.762 0C486.32 0 486.772 0.452012 486.772 1.0096Z" fill="currentColor"/>
  <path d="M502.931 1.0096C502.931 1.56718 502.479 2.01919 501.921 2.01919C501.363 2.01919 500.911 1.56718 500.911 1.0096C500.911 0.452012 501.363 0 501.921 0C502.479 0 502.931 0.452012 502.931 1.0096Z" fill="currentColor"/>
  <path d="M519.089 1.0096C519.089 1.56718 518.637 2.01919 518.079 2.01919C517.521 2.01919 517.069 1.56718 517.069 1.0096C517.069 0.452012 517.521 0 518.079 0C518.637 0 519.089 0.452012 519.089 1.0096Z" fill="currentColor"/>
  <path d="M535.247 1.0096C535.247 1.56718 534.795 2.01919 534.238 2.01919C533.68 2.01919 533.228 1.56718 533.228 1.0096C533.228 0.452012 533.68 0 534.238 0C534.795 0 535.247 0.452012 535.247 1.0096Z" fill="currentColor"/>
  <path d="M551.406 1.0096C551.406 1.56718 550.954 2.01919 550.396 2.01919C549.838 2.01919 549.386 1.56718 549.386 1.0096C549.386 0.452012 549.838 0 550.396 0C550.954 0 551.406 0.452012 551.406 1.0096Z" fill="currentColor"/>
  <path d="M567.564 1.0096C567.564 1.56718 567.112 2.01919 566.554 2.01919C565.997 2.01919 565.544 1.56718 565.544 1.0096C565.544 0.452012 565.997 0 566.554 0C567.112 0 567.564 0.452012 567.564 1.0096Z" fill="currentColor"/>
  <path d="M583.723 1.0096C583.723 1.56718 583.271 2.01919 582.713 2.01919C582.155 2.01919 581.703 1.56718 581.703 1.0096C581.703 0.452012 582.155 0 582.713 0C583.271 0 583.723 0.452012 583.723 1.0096Z" fill="currentColor"/>
  <path d="M599.881 1.0096C599.881 1.56718 599.429 2.01919 598.871 2.01919C598.313 2.01919 597.861 1.56718 597.861 1.0096C597.861 0.452012 598.313 0 598.871 0C599.429 0 599.881 0.452012 599.881 1.0096Z" fill="currentColor"/>
  <path d="M616.04 1.0096C616.04 1.56718 615.587 2.01919 615.03 2.01919C614.472 2.01919 614.02 1.56718 614.02 1.0096C614.02 0.452012 614.472 0 615.03 0C615.587 0 616.04 0.452012 616.04 1.0096Z" fill="currentColor"/>
  <path d="M632.198 1.0096C632.198 1.56718 631.746 2.01919 631.188 2.01919C630.63 2.01919 630.178 1.56718 630.178 1.0096C630.178 0.452012 630.63 0 631.188 0C631.746 0 632.198 0.452012 632.198 1.0096Z" fill="currentColor"/>
  <path d="M648.356 1.0096C648.356 1.56718 647.904 2.01919 647.346 2.01919C646.789 2.01919 646.337 1.56718 646.337 1.0096C646.337 0.452012 646.789 0 647.346 0C647.904 0 648.356 0.452012 648.356 1.0096Z" fill="currentColor"/>
  <path d="M664.515 1.0096C664.515 1.56718 664.063 2.01919 663.505 2.01919C662.947 2.01919 662.495 1.56718 662.495 1.0096C662.495 0.452012 662.947 0 663.505 0C664.063 0 664.515 0.452012 664.515 1.0096Z" fill="currentColor"/>
  <path d="M680.673 1.0096C680.673 1.56718 680.221 2.01919 679.663 2.01919C679.106 2.01919 678.653 1.56718 678.653 1.0096C678.653 0.452012 679.106 0 679.663 0C680.221 0 680.673 0.452012 680.673 1.0096Z" fill="currentColor"/>
  <path d="M696.832 1.0096C696.832 1.56718 696.38 2.01919 695.822 2.01919C695.264 2.01919 694.812 1.56718 694.812 1.0096C694.812 0.452012 695.264 0 695.822 0C696.38 0 696.832 0.452012 696.832 1.0096Z" fill="currentColor"/>
  <path d="M712.99 1.0096C712.99 1.56718 712.538 2.01919 711.98 2.01919C711.422 2.01919 710.97 1.56718 710.97 1.0096C710.97 0.452012 711.422 0 711.98 0C712.538 0 712.99 0.452012 712.99 1.0096Z" fill="currentColor"/>
  <path d="M729.148 1.0096C729.148 1.56718 728.696 2.01919 728.139 2.01919C727.581 2.01919 727.129 1.56718 727.129 1.0096C727.129 0.452012 727.581 0 728.139 0C728.696 0 729.148 0.452012 729.148 1.0096Z" fill="currentColor"/>
  <path d="M745.307 1.0096C745.307 1.56718 744.855 2.01919 744.297 2.01919C743.739 2.01919 743.287 1.56718 743.287 1.0096C743.287 0.452012 743.739 0 744.297 0C744.855 0 745.307 0.452012 745.307 1.0096Z" fill="currentColor"/>
  <path d="M761.465 1.0096C761.465 1.56718 761.013 2.01919 760.455 2.01919C759.898 2.01919 759.446 1.56718 759.446 1.0096C759.446 0.452012 759.898 0 760.455 0C761.013 0 761.465 0.452012 761.465 1.0096Z" fill="currentColor"/>
  <path d="M777.624 1.0096C777.624 1.56718 777.172 2.01919 776.614 2.01919C776.056 2.01919 775.604 1.56718 775.604 1.0096C775.604 0.452012 776.056 0 776.614 0C777.172 0 777.624 0.452012 777.624 1.0096Z" fill="currentColor"/>
  <path d="M793.782 1.0096C793.782 1.56718 793.33 2.01919 792.772 2.01919C792.215 2.01919 791.762 1.56718 791.762 1.0096C791.762 0.452012 792.215 0 792.772 0C793.33 0 793.782 0.452012 793.782 1.0096Z" fill="currentColor"/>
  <path d="M809.941 1.0096C809.941 1.56718 809.488 2.01919 808.931 2.01919C808.373 2.01919 807.921 1.56718 807.921 1.0096C807.921 0.452012 808.373 0 808.931 0C809.488 0 809.941 0.452012 809.941 1.0096Z" fill="currentColor"/>
  <path d="M826.099 1.0096C826.099 1.56718 825.647 2.01919 825.089 2.01919C824.531 2.01919 824.079 1.56718 824.079 1.0096C824.079 0.452012 824.531 0 825.089 0C825.647 0 826.099 0.452012 826.099 1.0096Z" fill="currentColor"/>
  <path d="M842.257 1.0096C842.257 1.56718 841.805 2.01919 841.247 2.01919C840.69 2.01919 840.238 1.56718 840.238 1.0096C840.238 0.452012 840.69 0 841.247 0C841.805 0 842.257 0.452012 842.257 1.0096Z" fill="currentColor"/>
  <path d="M858.416 1.0096C858.416 1.56718 857.964 2.01919 857.406 2.01919C856.848 2.01919 856.396 1.56718 856.396 1.0096C856.396 0.452012 856.848 0 857.406 0C857.964 0 858.416 0.452012 858.416 1.0096Z" fill="currentColor"/>
  <path d="M874.574 1.0096C874.574 1.56718 874.122 2.01919 873.564 2.01919C873.007 2.01919 872.554 1.56718 872.554 1.0096C872.554 0.452012 873.007 0 873.564 0C874.122 0 874.574 0.452012 874.574 1.0096Z" fill="currentColor"/>
  <path d="M890.733 1.0096C890.733 1.56718 890.28 2.01919 889.723 2.01919C889.165 2.01919 888.713 1.56718 888.713 1.0096C888.713 0.452012 889.165 0 889.723 0C890.28 0 890.733 0.452012 890.733 1.0096Z" fill="currentColor"/>
  <path d="M906.891 1.0096C906.891 1.56718 906.439 2.01919 905.881 2.01919C905.323 2.01919 904.871 1.56718 904.871 1.0096C904.871 0.452012 905.323 0 905.881 0C906.439 0 906.891 0.452012 906.891 1.0096Z" fill="currentColor"/>
  <path d="M923.049 1.0096C923.049 1.56718 922.597 2.01919 922.04 2.01919C921.482 2.01919 921.03 1.56718 921.03 1.0096C921.03 0.452012 921.482 0 922.04 0C922.597 0 923.049 0.452012 923.049 1.0096Z" fill="currentColor"/>
  <path d="M939.208 1.0096C939.208 1.56718 938.756 2.01919 938.198 2.01919C937.64 2.01919 937.188 1.56718 937.188 1.0096C937.188 0.452012 937.64 0 938.198 0C938.756 0 939.208 0.452012 939.208 1.0096Z" fill="currentColor"/>
  <path d="M955.366 1.0096C955.366 1.56718 954.914 2.01919 954.356 2.01919C953.799 2.01919 953.346 1.56718 953.346 1.0096C953.346 0.452012 953.799 0 954.356 0C954.914 0 955.366 0.452012 955.366 1.0096Z" fill="currentColor"/>
  <path d="M971.525 1.0096C971.525 1.56718 971.073 2.01919 970.515 2.01919C969.957 2.01919 969.505 1.56718 969.505 1.0096C969.505 0.452012 969.957 0 970.515 0C971.073 0 971.525 0.452012 971.525 1.0096Z" fill="currentColor"/>
  <path d="M987.683 1.0096C987.683 1.56718 987.231 2.01919 986.673 2.01919C986.115 2.01919 985.663 1.56718 985.663 1.0096C985.663 0.452012 986.115 0 986.673 0C987.231 0 987.683 0.452012 987.683 1.0096Z" fill="currentColor"/>
  <path d="M1003.84 1.0096C1003.84 1.56718 1003.39 2.01919 1002.83 2.01919C1002.27 2.01919 1001.82 1.56718 1001.82 1.0096C1001.82 0.452012 1002.27 0 1002.83 0C1003.39 0 1003.84 0.452012 1003.84 1.0096Z" fill="currentColor"/>
  <path d="M1020 1.0096C1020 1.56718 1019.55 2.01919 1018.99 2.01919C1018.43 2.01919 1017.98 1.56718 1017.98 1.0096C1017.98 0.452012 1018.43 0 1018.99 0C1019.55 0 1020 0.452012 1020 1.0096Z" fill="currentColor"/>
</svg>