<svg width="36" height="45" viewBox="0 0 36 45" fill="none" xmlns="http://www.w3.org/2000/svg">
<path d="M0 44.4L9 6.78002C9.52 4.74002 10.6 3.10002 12.24 1.86002C13.92 0.620023 15.84 2.38419e-05 18 2.38419e-05C20.16 2.38419e-05 22.06 0.620023 23.7 1.86002C25.38 3.10002 26.48 4.74002 27 6.78002L36 44.4H29.58L20.94 8.28002C20.7 7.32002 20.4 6.70002 20.04 6.42002C19.68 6.14002 19 6.00002 18 6.00002C17 6.00002 16.32 6.14002 15.96 6.42002C15.6 6.70002 15.3 7.32002 15.06 8.28002L6.42 44.4H0Z" fill="white"/>
</svg>
