<svg xmlns="http://www.w3.org/2000/svg" width="19" height="17" fill="none" viewBox="0 0 19 17"><path fill="currentColor" d="M16.68 14.178a.83.83 0 0 0-.111-.417l-.003-.003L9.899 2.091V2.09a.837.837 0 0 0-1.146-.31.83.83 0 0 0-.304.31l-.002.001-6.666 11.667-.002.003a.835.835 0 0 0 .31 1.141c.127.073.272.11.42.11h13.339l.109-.007a.84.84 0 0 0 .612-.41.83.83 0 0 0 .11-.417m-7.49-2.5a.833.833 0 0 1 0 1.667H9.18a.834.834 0 0 1 0-1.667zm-.842-2.5V5.845a.834.834 0 0 1 1.667 0v3.333a.833.833 0 0 1-1.667 0m9.998 5a2.5 2.5 0 0 1-2.496 2.5H2.515v-.002A2.5 2.5 0 0 1 .34 15.438a2.5 2.5 0 0 1-.005-2.51L7 1.265a2.5 2.5 0 0 1 4.346 0l6.668 11.666h-.001c.218.38.333.81.333 1.247"/></svg>
