<svg xmlns="http://www.w3.org/2000/svg" width="16" height="16" viewBox="0 0 16 16" fill="none">
  <g clip-path="url(#clip0_10984_52829)">
    <path d="M7.87271 0.319976H7.93223C9.36711 0.319976 10.7098 0.712296 11.8599 1.39518L11.8247 1.37534C13.0221 2.0755 13.9917 3.0451 14.6721 4.20542L14.6919 4.24254C15.3575 5.3747 15.7505 6.73598 15.7505 8.18878C15.7505 11.6486 13.5213 14.5888 10.4212 15.6499L10.3655 15.6665C10.3252 15.6793 10.2791 15.6864 10.2317 15.6864C10.1281 15.6864 10.0321 15.6518 9.95463 15.5942L9.95591 15.5949C9.87399 15.5213 9.82279 15.415 9.82279 15.2966C9.82279 15.2934 9.82279 15.2902 9.82279 15.2877V15.2883C9.82279 15.2678 9.82449 15.0063 9.82791 14.5037C9.83132 14.001 9.83303 13.5415 9.83303 13.1251C9.83751 13.0771 9.84007 13.0221 9.84007 12.9657C9.84007 12.4589 9.63335 12.0006 9.29991 11.6697C9.69543 11.6307 10.0525 11.5654 10.3994 11.4745L10.3508 11.4854C10.7175 11.383 11.0375 11.2467 11.3345 11.0745L11.3146 11.0854C11.6397 10.9062 11.9149 10.6784 12.1415 10.4083L12.1453 10.4038C12.3834 10.0992 12.5697 9.74078 12.6829 9.35102L12.6887 9.32862C12.8225 8.8915 12.8993 8.3891 12.8993 7.86878C12.8993 7.83998 12.8993 7.81054 12.8986 7.78174V7.78622C12.8986 7.77214 12.8993 7.75614 12.8993 7.74014C12.8993 6.94142 12.5908 6.21502 12.0871 5.67294L12.089 5.67486C12.1965 5.39326 12.2586 5.06814 12.2586 4.7283C12.2586 4.31294 12.1658 3.91998 12.0001 3.56734L12.0071 3.58398C11.9335 3.5699 11.8497 3.56158 11.7633 3.56158C11.5495 3.56158 11.3479 3.6115 11.1687 3.69982L11.1764 3.69662C10.8129 3.83102 10.5018 3.98334 10.2087 4.16126L10.233 4.14718L9.84327 4.39294C9.25319 4.22398 8.57543 4.1267 7.87527 4.1267C7.17511 4.1267 6.49735 4.22398 5.85479 4.40574L5.90663 4.39294C5.7974 4.31784 5.65212 4.22547 5.47079 4.11582C5.23207 3.97886 4.94983 3.84638 4.65671 3.73502L4.61447 3.72094C4.42695 3.62238 4.20487 3.56478 3.96871 3.56478C3.88935 3.56478 3.81127 3.57118 3.73575 3.58398L3.74407 3.5827C3.58535 3.91806 3.49255 4.31166 3.49255 4.72702C3.49255 5.06686 3.55463 5.39262 3.66855 5.69278L3.66215 5.67422C3.15975 6.21438 2.85191 6.94078 2.85191 7.7395C2.85191 7.7555 2.85191 7.77214 2.85255 7.78814V7.78558C2.85191 7.81054 2.85191 7.83934 2.85191 7.86878C2.85191 8.38654 2.92871 8.88702 3.07207 9.35806L3.06247 9.32158C3.18343 9.7331 3.36711 10.0909 3.60647 10.4051L3.60071 10.3968C3.82727 10.6752 4.10119 10.9043 4.41159 11.0765L4.42567 11.0835C4.70215 11.2448 5.02279 11.3811 5.36007 11.4765L5.38951 11.4835C5.68775 11.5635 6.04487 11.6288 6.41031 11.6653L6.43975 11.6678C6.16391 11.9417 5.98023 12.3078 5.93799 12.7161L5.93735 12.7238C5.80487 12.7885 5.65063 12.8409 5.48999 12.8749L5.47655 12.8774C5.31271 12.9101 5.12519 12.9286 4.93255 12.9286C4.91847 12.9286 4.90439 12.9286 4.89031 12.9286H4.89223C4.64007 12.9235 4.40839 12.8416 4.21703 12.7059L4.22087 12.7085C3.98343 12.5427 3.79143 12.3277 3.65703 12.0774L3.65255 12.0678C3.52583 11.8528 3.35879 11.6749 3.16103 11.5385L3.15527 11.5347C3.01127 11.4265 2.84167 11.3421 2.65863 11.2915L2.64839 11.2889L2.44359 11.2582C2.42887 11.2569 2.41159 11.2563 2.39431 11.2563C2.30471 11.2563 2.21959 11.2742 2.14215 11.3056L2.14663 11.3037C2.09201 11.3344 2.07495 11.3736 2.09543 11.4214C2.12039 11.4765 2.15111 11.5238 2.18823 11.5654L2.18759 11.5648C2.22663 11.6109 2.27079 11.6512 2.31879 11.6864L2.32071 11.6877L2.39239 11.7389C2.57351 11.8336 2.72263 11.9654 2.83591 12.1248L2.83847 12.1286C2.96071 12.2803 3.06823 12.4518 3.15463 12.6355L3.16103 12.6509L3.26343 12.8864C3.34983 13.1437 3.50663 13.3587 3.71143 13.5142L3.71463 13.5168C3.90663 13.6665 4.13831 13.7741 4.39111 13.8227L4.40135 13.824C4.61255 13.8649 4.85831 13.8905 5.10919 13.8957H5.11367C5.14247 13.8969 5.17575 13.8969 5.20967 13.8969C5.37671 13.8969 5.54055 13.8835 5.70055 13.8573L5.68327 13.8598L5.91879 13.8189C5.91879 14.0787 5.92049 14.3812 5.92391 14.7264C5.92732 15.0715 5.92903 15.2578 5.92903 15.2851V15.2941C5.92903 15.4125 5.87783 15.5187 5.79591 15.5923C5.71975 15.6493 5.62375 15.6838 5.51943 15.6838C5.47143 15.6838 5.42535 15.6768 5.38247 15.6633L5.38567 15.664C2.23111 14.583 0.00390625 11.6429 0.00390625 8.18238C0.00390625 6.73086 0.395586 5.37086 1.07975 4.20222L1.05927 4.23934C1.75943 3.0419 2.72903 2.0723 3.88935 1.39198L3.92647 1.37214C5.03943 0.710376 6.38087 0.319336 7.81319 0.319336H7.87591H7.87271V0.319976ZM2.98311 11.6262C3.00359 11.5784 2.97969 11.5375 2.91143 11.5033C2.84316 11.4829 2.79879 11.4897 2.77831 11.5238C2.75783 11.5716 2.78172 11.6126 2.84999 11.6467C2.91143 11.6877 2.9558 11.6808 2.98311 11.6262ZM3.30119 11.975C3.34897 11.9409 3.34215 11.8863 3.28071 11.8112C3.21244 11.7497 3.15783 11.7395 3.11687 11.7805C3.06908 11.8146 3.07591 11.8692 3.13735 11.9443C3.20519 12.0113 3.2598 12.0213 3.30119 11.9744V11.975ZM3.60839 12.4358C3.66983 12.388 3.66983 12.3232 3.60839 12.2413C3.55377 12.1525 3.49575 12.132 3.43431 12.1798C3.37287 12.2139 3.37287 12.2754 3.43431 12.3641C3.49575 12.4529 3.55377 12.4768 3.60839 12.4358ZM4.03847 12.8665C4.09308 12.8119 4.07943 12.7471 3.99751 12.672C3.91559 12.5901 3.84732 12.5798 3.79271 12.6413C3.73127 12.6959 3.74492 12.7607 3.83367 12.8358C3.91559 12.9177 3.98385 12.9271 4.03847 12.864V12.8665ZM4.62279 13.1225C4.64327 13.0474 4.59889 12.9928 4.48967 12.9587C4.38727 12.9314 4.32241 12.9553 4.29511 13.0304C4.2678 13.1055 4.31217 13.1567 4.42823 13.184C4.53063 13.2254 4.59548 13.2049 4.62279 13.1225ZM5.26855 13.1737C5.26855 13.085 5.21052 13.0474 5.09447 13.0611C4.98524 13.0611 4.93063 13.0986 4.93063 13.1737C4.93063 13.2625 4.98865 13.3 5.10471 13.2864C5.21393 13.2868 5.26855 13.2488 5.26855 13.1737ZM5.86311 13.0713C5.84945 12.9962 5.78801 12.9655 5.67879 12.9792C5.56956 12.9997 5.52177 13.0509 5.53543 13.1328C5.54908 13.2147 5.61052 13.242 5.71975 13.2147C5.82897 13.1874 5.87633 13.1396 5.86311 13.0713Z" fill="#F4F5F6"/>
  </g>
  <defs>
    <clipPath id="clip0_10984_52829">
      <rect width="16" height="16" fill="white"/>
    </clipPath>
  </defs>
</svg>