<svg width="16" height="16" viewBox="0 0 16 16" fill="transparent" xmlns="http://www.w3.org/2000/svg">
  <path d="M4.66659 6.66658V14.6666M9.99992 3.91992L9.33325 6.66658H13.2199C13.4269 6.66658 13.6311 6.71478 13.8162 6.80735C14.0013 6.89992 14.1624 7.03432 14.2866 7.19992C14.4108 7.36551 14.4947 7.55775 14.5317 7.7614C14.5688 7.96506 14.5579 8.17454 14.4999 8.37325L12.9466 13.7066C12.8658 13.9835 12.6974 14.2268 12.4666 14.3999C12.2358 14.573 11.9551 14.6666 11.6666 14.6666H2.66659C2.31296 14.6666 1.97382 14.5261 1.72378 14.2761C1.47373 14.026 1.33325 13.6869 1.33325 13.3333V7.99992C1.33325 7.6463 1.47373 7.30716 1.72378 7.05711C1.97382 6.80706 2.31296 6.66658 2.66659 6.66658H4.50659C4.75464 6.66645 4.99774 6.59713 5.20856 6.4664C5.41937 6.33567 5.58953 6.14873 5.69992 5.92659L7.99992 1.33325C8.3143 1.33715 8.62374 1.41203 8.90512 1.55232C9.1865 1.6926 9.43254 1.89466 9.62486 2.14339C9.81717 2.39212 9.9508 2.68109 10.0157 2.98872C10.0807 3.29635 10.0753 3.61468 9.99992 3.91992Z" stroke="currentColor" stroke-width="1.4" stroke-linecap="round" stroke-linejoin="round"/>
</svg>