<svg width="16" height="16" viewBox="0 0 16 16" fill="transparent" xmlns="http://www.w3.org/2000/svg">
  <path d="M11.3334 9.33325V1.33325M6.00011 12.0799L6.66678 9.33325H2.78011C2.57312 9.33325 2.36897 9.28506 2.18383 9.19249C1.99869 9.09992 1.83764 8.96551 1.71344 8.79992C1.58925 8.63432 1.50531 8.44209 1.46828 8.23843C1.43126 8.03478 1.44215 7.8253 1.50011 7.62658L3.05344 2.29325C3.13422 2.0163 3.30265 1.77301 3.53344 1.59992C3.76424 1.42682 4.04495 1.33325 4.33344 1.33325H13.3334C13.6871 1.33325 14.0262 1.47373 14.2763 1.72378C14.5263 1.97382 14.6668 2.31296 14.6668 2.66659V7.99992C14.6668 8.35354 14.5263 8.69268 14.2763 8.94273C14.0262 9.19278 13.6871 9.33325 13.3334 9.33325H11.4934C11.2454 9.33338 11.0023 9.40271 10.7915 9.53344C10.5807 9.66417 10.4105 9.85111 10.3001 10.0733L8.00011 14.6666C7.68573 14.6627 7.37629 14.5878 7.09491 14.4475C6.81353 14.3072 6.56749 14.1052 6.37517 13.8564C6.18286 13.6077 6.04923 13.3187 5.98429 13.0111C5.91934 12.7035 5.92475 12.3852 6.00011 12.0799Z" stroke="currentColor" stroke-width="1.4" stroke-linecap="round" stroke-linejoin="round"/>
</svg>