<svg xmlns="http://www.w3.org/2000/svg" width="16" height="16" viewBox="0 0 16 16" fill="none">
  <g clip-path="url(#clip0_12826_8289)">
    <path d="M12.6667 0.106445H3.33333C2.44928 0.106445 1.60143 0.457635 0.976311 1.08276C0.351189 1.70788 0 2.55572 0 3.43978L0 12.7731C0 13.2109 0.0862192 13.6443 0.253735 14.0487C0.421251 14.4531 0.666782 14.8206 0.976311 15.1301C1.60143 15.7553 2.44928 16.1064 3.33333 16.1064H12.6667C13.1044 16.1064 13.5379 16.0202 13.9423 15.8527C14.3467 15.6852 14.7142 15.4397 15.0237 15.1301C15.3332 14.8206 15.5787 14.4531 15.7463 14.0487C15.9138 13.6443 16 13.2109 16 12.7731V3.43978C16 3.00204 15.9138 2.56859 15.7463 2.16417C15.5787 1.75975 15.3332 1.39228 15.0237 1.08276C14.7142 0.773227 14.3467 0.527696 13.9423 0.36018C13.5379 0.192665 13.1044 0.106445 12.6667 0.106445ZM5.33333 12.7731H3.33333V5.43978H5.33333V12.7731ZM4.33333 4.59445C3.68933 4.59445 3.16667 4.06778 3.16667 3.41845C3.16667 2.76911 3.68933 2.24245 4.33333 2.24245C4.97733 2.24245 5.5 2.76911 5.5 3.41845C5.5 4.06778 4.978 4.59445 4.33333 4.59445ZM13.3333 12.7731H11.3333V9.03711C11.3333 6.79178 8.66667 6.96178 8.66667 9.03711V12.7731H6.66667V5.43978H8.66667V6.61645C9.59733 4.89245 13.3333 4.76511 13.3333 8.26711V12.7731Z" fill="#F4F5F6"/>
  </g>
  <defs>
    <clipPath id="clip0_12826_8289">
      <rect width="16" height="16" fill="white"/>
    </clipPath>
  </defs>
</svg>