<svg viewBox="0 0 33 24" fill="none" xmlns="http://www.w3.org/2000/svg">
  <path
    d="M31.6047 9.79157C31.0136 9.79157 30.5346 10.2685 30.5346 10.857V15.0821L25.6583 20.2457L25.6767 17.3519C25.6767 16.7979 25.2252 16.3484 24.6688 16.3484H5.92696C3.8032 16.3484 2.14006 14.8111 2.14006 12.8478V5.63041C2.14006 4.57819 2.50897 2.12979 5.92186 2.12979L25.6869 2.21908C26.2555 2.21908 26.8201 2.25967 27.4122 2.34287C28.1989 2.45347 28.9235 2.60161 29.4758 2.98617L25.1366 7.22547C24.6525 6.5639 23.9514 6.06671 23.1422 5.84653C20.9675 5.25599 18.9365 6.73843 18.6063 8.7424H13.1237C13.1033 8.62876 13.0799 8.51511 13.0483 8.40046C12.7099 7.16662 11.7214 6.18239 10.4822 5.84653C7.77659 5.11191 5.29207 7.58669 6.0309 10.2806C6.36924 11.5145 7.35774 12.4987 8.59694 12.8356C10.6647 13.3977 12.6009 12.0847 13.0717 10.233H18.6807C18.6848 10.2492 18.6879 10.2644 18.6919 10.2806C19.0303 11.5145 20.0188 12.4987 21.258 12.8356C23.5794 13.4667 25.7358 11.7347 25.8367 9.52877L30.502 4.97087C30.503 4.97594 30.503 4.98102 30.503 4.98609L31.5996 3.8943C32.048 3.44785 32.0989 2.74367 31.7259 2.23227C30.5601 0.633154 28.6269 0.361223 27.7128 0.233374C27.0209 0.135966 26.3585 0.089291 25.694 0.089291L5.92696 0C4.08854 0 2.55687 0.576333 1.49804 1.66609C0.517692 2.67467 0 4.04651 0 5.63142V12.8498C0 14.3667 0.614504 15.7852 1.72938 16.8445C2.83915 17.8998 4.33006 18.4802 5.92696 18.4802H23.5183V22.9346C23.5183 23.3719 23.7863 23.7636 24.1939 23.9249C24.3223 23.9756 24.4558 24 24.5883 24C24.8777 24 25.1621 23.8833 25.3679 23.6641L32.3843 16.2347C32.5708 16.0369 32.6747 15.7761 32.6747 15.5052V10.858C32.6747 10.2685 32.1957 9.79157 31.6047 9.79157ZM9.01375 11.2892C8.32281 11.1015 7.77149 10.5526 7.58296 9.86463C7.17125 8.3619 8.55618 6.98195 10.0654 7.39187C10.7564 7.57959 11.3077 8.12852 11.4962 8.81647C11.9089 10.3202 10.523 11.7002 9.01375 11.2892ZM21.6748 11.2892C20.9838 11.1015 20.4325 10.5526 20.244 9.86463C19.8323 8.3619 21.2172 6.98195 22.7265 7.39187C23.4174 7.57959 23.9687 8.12852 24.1572 8.81647C24.57 10.3202 23.184 11.7002 21.6748 11.2892Z"
    fill="url(#paint0_linear_12122_7205)" />
  <defs>
    <linearGradient id="paint0_linear_12122_7205" x1="16.3374" y1="0" x2="16.3374" y2="24"
      gradientUnits="userSpaceOnUse">
      <stop stop-color="#8EECFF" />
      <stop offset="0.527969" stop-color="#2BD9FC" />
    </linearGradient>
  </defs>
</svg>