<svg viewBox="0 0 20 20" fill="none" xmlns="http://www.w3.org/2000/svg">
<path d="M14.3506 3.84863C15.7989 3.84866 16.7213 4.03932 17.3125 4.31641C17.9215 4.60197 18.2119 5.00075 18.2783 5.37109C18.3405 5.71821 18.0973 6.04311 17.7432 6.10156C17.6404 6.11854 17.5394 6.10829 17.4453 6.08105L15.1357 8.82031C15.1091 8.85185 15.0793 8.87854 15.0488 8.90234C14.9839 9.26424 14.8129 9.61093 14.5332 9.89062C13.8047 10.6189 12.624 10.619 11.8955 9.89062C11.6434 9.63851 11.48 9.3318 11.4023 9.00879H8.59766C8.52004 9.33178 8.35659 9.63852 8.10449 9.89062C7.37601 10.6189 6.19523 10.619 5.4668 9.89062C4.7384 9.16219 4.73854 7.98145 5.4668 7.25293C6.1953 6.52446 7.37602 6.52446 8.10449 7.25293C8.35669 7.50513 8.52008 7.81163 8.59766 8.13477H11.4023C11.4799 7.81167 11.6434 7.50512 11.8955 7.25293C12.624 6.52446 13.8047 6.52446 14.5332 7.25293C14.6007 7.32042 14.6599 7.39323 14.7148 7.46777L16.4941 5.35938C16.1002 5.23137 15.4377 5.11232 14.3506 5.1123H4.8418C4.37678 5.11227 3.7956 5.20553 3.3623 5.50098C3.16698 5.6342 2.98101 5.82247 2.84961 6.10156C2.71803 6.38119 2.63856 6.75708 2.66406 7.26855C2.66457 7.27869 2.66504 7.28886 2.66504 7.29883V10.4521C2.66504 10.9309 2.78265 11.3009 3.00879 11.5566C3.22455 11.8005 3.61673 12.0284 4.36035 12.083H14.3506C14.7092 12.0831 15.0059 12.3629 15.0059 12.7148V13.9004L17.3408 11.457V9.36719C17.3409 9.01523 17.6374 8.73535 17.9961 8.73535C18.3547 8.73543 18.6513 9.01528 18.6514 9.36719V11.7041C18.6513 11.8631 18.5886 12.0155 18.4775 12.1318L14.832 15.9473C14.6492 16.1386 14.3646 16.2017 14.1143 16.1084C13.8634 16.0148 13.6953 15.7821 13.6953 15.5195V13.3467H4.33398C4.31854 13.3467 4.30263 13.3458 4.28711 13.3447C3.28084 13.2756 2.51535 12.9453 2.01172 12.376C1.51682 11.8163 1.35449 11.1148 1.35449 10.4521V7.31543L1.34863 7.06055C1.35519 5.81533 1.86167 4.97589 2.60547 4.46875C3.35381 3.95853 4.24912 3.84863 4.8418 3.84863H14.3506ZM7.45215 7.90527C7.08403 7.53715 6.48726 7.53715 6.11914 7.90527C5.75123 8.27344 5.75109 8.8702 6.11914 9.23828C6.4872 9.60634 7.08401 9.60621 7.45215 9.23828C7.8203 8.87013 7.82029 8.27343 7.45215 7.90527ZM13.8809 7.90527C13.5127 7.53715 12.916 7.53715 12.5479 7.90527C12.1799 8.27344 12.1798 8.87017 12.5479 9.23828C12.9159 9.60629 13.5127 9.60625 13.8809 9.23828C14.249 8.87016 14.2489 8.27343 13.8809 7.90527Z" fill="url(#paint0_linear_707_5586)" stroke="url(#paint1_linear_707_5586)" stroke-width="0.159375"/>
<defs>
<linearGradient id="paint0_linear_707_5586" x1="12.827" y1="5.86912" x2="-0.484347" y2="10.224" gradientUnits="userSpaceOnUse">
<stop stop-color="#6E7FC3"/>
<stop offset="1" stop-color="#C1C2C8"/>
</linearGradient>
<linearGradient id="paint1_linear_707_5586" x1="12.827" y1="5.86912" x2="-0.484347" y2="10.224" gradientUnits="userSpaceOnUse">
<stop stop-color="#6E7FC3"/>
<stop offset="1" stop-color="#C1C2C8"/>
</linearGradient>
</defs>
</svg>

