<svg xmlns="http://www.w3.org/2000/svg" width="16" height="16" fill="none" stroke="currentColor" viewBox="0 0 18 18"><path stroke-linecap="round" stroke-linejoin="round" stroke-width="1.5" d="M9 14.734a7.56 7.56 0 0 0-3.416-1.321 12.5 12.5 0 0 0-2.651-.25.86.86 0 0 1-.87-.862l.015-8.17a.86.86 0 0 1 .806-.862 12.5 12.5 0 0 1 2.7.241A7.7 7.7 0 0 1 9 4.832m0 9.902V4.832m0 9.902a7.56 7.56 0 0 1 3.416-1.321c.873-.177 1.761-.26 2.652-.25a.86.86 0 0 0 .87-.862l-.017-8.17a.86.86 0 0 0-.805-.862 12.5 12.5 0 0 0-2.7.241A7.7 7.7 0 0 0 9 4.832"/></svg>