<svg width="32" height="32" viewBox="0 0 32 32" fill="none" xmlns="http://www.w3.org/2000/svg">
<path d="M28.0007 6.66602C28.0007 5.92964 27.4037 5.33268 26.6673 5.33268H5.33398C4.5976 5.33268 4.00065 5.92964 4.00065 6.66602V19.9993C4.00065 20.7357 4.5976 21.3327 5.33398 21.3327H26.6673C27.4037 21.3327 28.0007 20.7357 28.0007 19.9993V6.66602ZM18.3913 9.05664C18.912 8.53594 19.756 8.53594 20.2767 9.05664C20.7974 9.57734 20.7974 10.4214 20.2767 10.9421L17.8861 13.3327L20.2767 15.7233C20.7974 16.244 20.7974 17.088 20.2767 17.6087C19.756 18.1294 18.912 18.1294 18.3913 17.6087L16.0007 15.2181L13.61 17.6087C13.0893 18.1294 12.2453 18.1294 11.7246 17.6087C11.2039 17.088 11.2039 16.244 11.7246 15.7233L14.1152 13.3327L11.7246 10.9421C11.2039 10.4214 11.2039 9.57734 11.7246 9.05664C12.2453 8.53594 13.0893 8.53594 13.61 9.05664L16.0007 11.4473L18.3913 9.05664ZM30.6673 19.9993C30.6673 22.2085 28.8765 23.9993 26.6673 23.9993H17.334V26.666H21.334C22.0704 26.666 22.6673 27.263 22.6673 27.9993C22.6673 28.7357 22.0704 29.3327 21.334 29.3327H10.6673C9.93094 29.3327 9.33398 28.7357 9.33398 27.9993C9.33398 27.263 9.93094 26.666 10.6673 26.666H14.6673V23.9993H5.33398C3.12485 23.9993 1.33398 22.2085 1.33398 19.9993V6.66602C1.33398 4.45688 3.12485 2.66602 5.33398 2.66602H26.6673C28.8765 2.66602 30.6673 4.45688 30.6673 6.66602V19.9993Z" fill="url(#paint0_linear_12122_7468)"/>
<defs>
<linearGradient id="paint0_linear_12122_7468" x1="8.93094" y1="35.147" x2="26.1268" y2="8.3852" gradientUnits="userSpaceOnUse">
<stop stop-color="#7F98D5"/>
<stop offset="1" stop-color="#BFCBE7"/>
</linearGradient>
</defs>
</svg>
