<svg viewBox="0 0 32 32" fill="currentColor" xmlns="http://www.w3.org/2000/svg">
  <path d="M27.9997 6.66669C27.9997 5.93031 27.4027 5.33335 26.6663 5.33335H5.33301C4.59663 5.33335 3.99967 5.93031 3.99967 6.66669V20C3.99967 20.7364 4.59663 21.3334 5.33301 21.3334H26.6663C27.4027 21.3334 27.9997 20.7364 27.9997 20V6.66669ZM18.3903 9.05731C18.911 8.53661 19.755 8.53661 20.2757 9.05731C20.7964 9.57801 20.7964 10.422 20.2757 10.9427L17.8851 13.3334L20.2757 15.724C20.7964 16.2447 20.7964 17.0887 20.2757 17.6094C19.755 18.1301 18.911 18.1301 18.3903 17.6094L15.9997 15.2188L13.609 17.6094C13.0884 18.1301 12.2443 18.1301 11.7236 17.6094C11.2029 17.0887 11.2029 16.2447 11.7236 15.724L14.1143 13.3334L11.7236 10.9427C11.2029 10.422 11.2029 9.57801 11.7236 9.05731C12.2443 8.53661 13.0884 8.53661 13.609 9.05731L15.9997 11.4479L18.3903 9.05731ZM30.6663 20C30.6663 22.2092 28.8755 24 26.6663 24H17.333V26.6667H21.333C22.0694 26.6667 22.6663 27.2636 22.6663 28C22.6663 28.7364 22.0694 29.3334 21.333 29.3334H10.6663C9.92996 29.3334 9.33301 28.7364 9.33301 28C9.33301 27.2636 9.92996 26.6667 10.6663 26.6667H14.6663V24H5.33301C3.12387 24 1.33301 22.2092 1.33301 20V6.66669C1.33301 4.45755 3.12387 2.66669 5.33301 2.66669H26.6663C28.8755 2.66669 30.6663 4.45755 30.6663 6.66669V20Z" fill="currentColor"/>
</svg>