<svg xmlns="http://www.w3.org/2000/svg" fill="none" stroke="currentColor" viewBox="0 0 17 16"><path stroke-width="1.4" d="M8.943 10a2 2 0 1 0 0-4 2 2 0 0 0 0 4Z"/><path stroke-width="1.4" d="M10.12 1.435c-.245-.102-.555-.102-1.177-.102-.621 0-.932 0-1.176.102a1.33 1.33 0 0 0-.722.722c-.062.148-.086.322-.096.575a1.08 1.08 0 0 1-.526.902 1.08 1.08 0 0 1-1.045.005c-.224-.118-.386-.184-.547-.205a1.33 1.33 0 0 0-.985.264c-.21.162-.365.43-.676.969-.31.538-.467.806-.5 1.07a1.33 1.33 0 0 0 .263.986c.099.128.237.235.451.37.315.198.518.535.518.907s-.203.71-.518.907c-.214.135-.353.242-.45.37a1.33 1.33 0 0 0-.265.986c.035.263.19.532.5 1.07.312.538.467.807.677.969a1.33 1.33 0 0 0 .986.264c.16-.021.322-.087.546-.205a1.08 1.08 0 0 1 1.045.005c.322.187.513.53.526.902.01.253.034.427.096.575a1.33 1.33 0 0 0 .722.722c.244.102.555.102 1.176.102.622 0 .932 0 1.177-.102a1.34 1.34 0 0 0 .722-.722c.061-.148.086-.322.095-.575.014-.372.205-.716.527-.902a1.08 1.08 0 0 1 1.045-.005c.224.118.386.184.546.205a1.33 1.33 0 0 0 .986-.264c.21-.161.365-.43.676-.969.31-.538.466-.806.5-1.07a1.33 1.33 0 0 0-.264-.986c-.098-.128-.236-.235-.45-.37A1.08 1.08 0 0 1 13.985 8c0-.372.202-.71.518-.907.214-.135.352-.242.45-.37a1.33 1.33 0 0 0 .264-.986c-.034-.263-.19-.532-.5-1.07-.311-.538-.466-.807-.676-.969a1.33 1.33 0 0 0-.986-.264c-.16.021-.322.087-.547.205a1.08 1.08 0 0 1-1.044-.005 1.08 1.08 0 0 1-.527-.902c-.009-.253-.033-.427-.095-.575a1.33 1.33 0 0 0-.722-.722Z"/></svg>