<svg width="26" height="26" viewBox="0 0 26 26" fill="none" xmlns="http://www.w3.org/2000/svg">
<path d="M2.08008 0.987547L2.23608 5.09555L4.36808 6.96755L2.49608 7.33155L2.18408 15.2355L9.36008 22.0475L9.46408 24.8035L22.9321 20.0195L22.7241 17.6795L24.1281 15.0275L23.9201 14.0395L23.1921 13.9355L21.5801 14.1955L17.6801 14.2475L15.3401 11.3875V10.9715L17.4201 11.0235V0.935547L2.08008 0.987547Z" fill="#46B8B0"/>
<path d="M14.5077 3.22266H5.51166C5.19966 3.22266 4.93966 3.43066 4.78366 3.69066C4.67966 4.05466 4.73166 4.36666 4.99166 4.57466L8.83966 8.42266H5.45966C5.08864 8.42698 4.73403 8.57628 4.47166 8.83865C4.20929 9.10103 4.05998 9.45563 4.05566 9.82666V13.3107C4.05566 13.7787 4.21166 14.1947 4.52366 14.5067L8.37166 18.3547C8.52766 18.5107 8.78766 18.6147 8.99566 18.6147C9.09966 18.6147 9.20366 18.6147 9.35966 18.5627C9.67166 18.4067 9.93166 18.0947 9.93166 17.7307V14.7667C9.93166 14.5067 10.1397 14.2987 10.3997 14.2987H13.1557C13.5717 14.2987 13.8837 14.0907 14.0397 13.7267C14.1957 13.3627 14.0917 12.9467 13.8317 12.6867L10.1397 8.99466H14.5597C14.9757 8.99466 15.3397 8.63066 15.3397 8.21466V4.05466C15.2877 3.58666 14.9757 3.22266 14.5077 3.22266ZM13.4677 13.4667C13.4677 13.5187 13.3637 13.6747 13.1037 13.6747H10.3997C9.82766 13.6747 9.35966 14.1427 9.35966 14.7147V17.6787C9.35966 17.8867 9.20366 17.9387 9.15166 17.9907C9.09966 17.9907 8.94366 18.0427 8.78766 17.9387L4.93966 14.0387C4.73166 13.8307 4.62766 13.5707 4.62766 13.2587V9.77466C4.62766 9.56666 4.73166 9.35866 4.88766 9.20266C5.04366 9.04666 5.25166 8.94266 5.45966 8.94266H9.35966L13.4157 12.9987C13.5717 13.2587 13.5197 13.4147 13.4677 13.4667ZM14.7157 8.21466C14.7157 8.31866 14.6117 8.42266 14.5077 8.42266H9.67166C9.61966 8.42266 9.56766 8.42266 9.51566 8.37066L5.35566 4.21066C5.25166 4.10666 5.30366 4.00266 5.30366 4.00266C5.30366 3.95066 5.35566 3.89866 5.51166 3.89866H14.5077C14.6117 3.89866 14.7157 4.00266 14.7157 4.10666V8.21466Z" fill="#3C4043"/>
<path d="M17.3677 19.5523C17.1077 19.5523 16.8477 19.6563 16.6917 19.8123C16.5357 19.9683 16.4837 20.1763 16.4837 20.4363C16.4837 20.6963 16.2757 20.9563 16.1717 21.0083C16.0677 21.1123 16.1197 21.3203 16.2757 21.3203H17.1597C17.4197 21.3203 17.6797 21.2163 17.8877 21.0603C18.0957 20.9043 18.1997 20.6963 18.1997 20.3843C18.1997 20.1243 18.1477 19.9163 17.9917 19.7603C17.8877 19.6043 17.6277 19.5523 17.3677 19.5523ZM17.3677 19.9163C17.5757 19.9163 17.6797 19.9683 17.7837 20.0723C17.8877 20.1763 17.8877 20.2803 17.8877 20.4363C17.8877 20.5923 17.8357 20.6963 17.6797 20.8003C17.5757 20.9043 17.3677 20.9563 17.1597 20.9563H16.6397C16.7437 20.8003 16.7957 20.6443 16.7957 20.4363C16.7957 20.2803 16.8477 20.1763 16.9517 20.0723C17.0557 19.9683 17.1597 19.9163 17.3677 19.9163ZM21.5277 16.0163C21.4757 16.0163 21.4237 16.0163 21.4237 16.0683C21.3197 16.1203 21.2677 16.1203 21.1117 16.2243C20.9037 16.3283 20.5917 16.5363 20.2797 16.6923C19.6557 17.1083 18.9797 17.5763 18.6157 17.8883C18.3037 18.2003 18.0437 18.5123 17.9397 18.8243C17.8357 19.1363 17.8877 19.4483 18.0957 19.7083C18.3557 19.9683 18.6677 19.9683 18.9797 19.8643C19.2917 19.7603 19.6037 19.5003 19.9157 19.1883C20.2797 18.8243 20.7477 18.1483 21.1117 17.5243C21.3197 17.2123 21.4757 16.9003 21.5797 16.6923L21.7357 16.3803C21.7357 16.3283 21.7357 16.2763 21.7877 16.2763C21.7877 16.2243 21.7877 16.1723 21.7357 16.0683C21.6317 15.9643 21.5797 16.0163 21.5277 16.0163ZM21.3197 16.5363C21.2157 16.7443 21.0597 17.0563 20.8517 17.3163C20.4877 17.9403 19.9677 18.6163 19.7077 18.8763C19.3957 19.1883 19.1357 19.3963 18.8757 19.5003C18.6677 19.6043 18.5117 19.5523 18.4077 19.3963C18.1997 19.2403 18.1997 19.1363 18.2517 18.9283C18.3557 18.7203 18.5637 18.4083 18.8757 18.0963C19.1877 17.7843 19.8637 17.3163 20.4357 16.9523C20.7477 16.7443 21.0597 16.5883 21.3197 16.5363C21.3197 16.4843 21.3197 16.4843 21.3197 16.5363ZM12.0637 17.0563H18.0957C18.1997 17.0563 18.2517 17.1603 18.2517 17.2123C18.2517 17.2643 18.1477 17.3683 18.0957 17.3683H12.0637C11.9597 17.3683 11.9077 17.2643 11.9077 17.2123C11.9077 17.1603 11.9597 17.0563 12.0637 17.0563ZM13.6237 16.5363C13.6237 16.6403 13.5197 16.6923 13.4677 16.6923C13.3637 16.6923 13.3117 16.5883 13.3117 16.5363C13.3117 16.4323 13.4157 16.3803 13.4677 16.3803C13.5717 16.3283 13.6237 16.4323 13.6237 16.5363ZM12.9477 16.5363C12.9477 16.6403 12.8437 16.6923 12.7917 16.6923C12.6877 16.6923 12.6357 16.5883 12.6357 16.5363C12.6357 16.4323 12.7397 16.3803 12.7917 16.3803C12.8437 16.3283 12.9477 16.4323 12.9477 16.5363ZM12.2197 16.5363C12.2197 16.6403 12.1157 16.6923 12.0637 16.6923C11.9597 16.6923 11.9077 16.5883 11.9077 16.5363C11.9077 16.4323 12.0117 16.3803 12.0637 16.3803C12.1157 16.3283 12.2197 16.4323 12.2197 16.5363ZM11.6997 15.6523C11.3877 15.6523 11.1797 15.9123 11.1797 16.1723V22.8803C11.1797 23.1923 11.4397 23.4003 11.6997 23.4003H20.5397C20.8517 23.4003 21.0597 23.1403 21.0597 22.8803V18.6163C21.0597 18.3563 20.6957 18.3563 20.6957 18.6163V22.8803C20.6957 22.9843 20.6437 23.0363 20.5397 23.0363H11.6997C11.5957 23.0363 11.5437 22.9843 11.5437 22.8803V16.1723C11.5437 16.0683 11.5957 16.0163 11.6997 16.0163H20.5397C20.7997 16.0163 20.7477 15.6523 20.5397 15.6523H11.6997Z" fill="#3C4043"/>
<path d="M14.5596 24.805H9.46358V22.309C9.46358 22.153 9.41158 21.997 9.30758 21.893L2.49558 15.029V7.333H3.79558C4.05558 7.333 4.26358 7.229 4.36758 6.969C4.52358 6.709 4.41958 6.397 4.21158 6.189L2.49558 4.889V1.301L17.2636 1.249V10.661H15.4956C15.2356 10.661 15.0276 10.817 14.9236 11.025C14.8196 11.233 14.8716 11.493 15.0276 11.649L17.2636 14.405C17.3676 14.509 17.5236 14.613 17.7316 14.613C21.1116 14.613 21.4756 14.613 21.6316 14.561C22.5156 14.197 23.6076 13.989 23.8156 14.301C23.8156 14.301 24.0756 14.769 22.6716 17.161C22.5676 17.369 22.5156 17.369 22.5156 17.473V22.257C22.5156 22.413 22.6196 22.517 22.7756 22.517H22.9316C23.0876 22.517 23.1916 22.413 23.1916 22.257V17.577C23.1916 17.577 23.1916 17.525 23.2436 17.525C24.3876 15.601 24.7516 14.457 24.3876 13.937C23.7636 13.001 21.8916 13.729 21.3716 13.937C21.0076 13.937 19.0316 13.989 17.7316 13.989L15.6516 11.441H17.3156C17.6796 11.441 17.9396 11.181 17.9396 10.817V1.197C17.9396 1.041 17.8876 0.885 17.7316 0.781C17.6276 0.677 17.4716 0.625 17.3156 0.625H2.39158C2.02758 0.625 1.76758 0.885 1.76758 1.249V4.941C1.76758 5.149 1.87158 5.305 2.02758 5.409L3.58758 6.605H2.39158C2.02758 6.605 1.76758 6.865 1.76758 7.229V15.081C1.76758 15.237 1.81958 15.393 1.92358 15.497L8.73558 22.309V24.857C8.73558 25.221 8.99558 25.481 9.35958 25.481H14.5596C14.7676 25.481 14.9236 25.325 14.9236 25.117C14.9236 24.961 14.7676 24.805 14.5596 24.805Z" fill="#3C4043" stroke="#3C4043" stroke-miterlimit="10"/>
</svg>
