<svg version="1" xmlns="http://www.w3.org/2000/svg" viewBox="0 0 1175 223"><path fill="#7ACE7A" d="M0 0h1175v223H0z"/><path fill="#D6ECF2" d="M846.88 143.06L811.29 223H500.75l1.31-2.94 10.33-23.2 4.48-10.05 10.33-23.2 4.47-10.05 10.33-23.2 4.47-10.05 31.55-70.86 1.51-3.39 6.71-15.07c.08-.18.17-.36.27-.53.03-.06.06-.11.09-.16.11-.17.22-.33.33-.49.01 0 .01-.01.02-.02.13-.17.27-.34.42-.49.01-.02.02-.03.03-.04.14-.15.29-.28.44-.42.01-.01.03-.02.04-.03.17-.15.35-.28.53-.4a6.045 6.045 0 0 1 1.79-.82c.05-.02.09-.03.13-.04l.11-.03c.02-.01.04-.01.06-.02h.03s.01-.01.02-.01c.02-.01.04-.01.06-.02.01 0 .03-.01.05-.01.02-.01.04-.01.06-.02.01 0 .03-.01.05-.01.02-.01.04-.01.05-.02.02 0 .04-.01.06-.01.02-.01.04-.01.05-.01.02-.01.04-.01.06-.02s.04-.01.05-.01c.02-.01.04-.01.06-.02s.04-.01.05-.01c.02-.01.04-.01.06-.02s.03-.01.05-.01c.02-.01.04-.01.06-.02s.03-.01.05-.01c.02-.01.04-.01.06-.02.02 0 .03-.01.05-.01.02-.01.04-.01.06-.02.02 0 .03-.01.05-.01.02-.01.04-.01.06-.02.01 0 .03-.01.05-.01.02-.01.04-.01.06-.02.01 0 .03-.01.05-.01.02-.01.04-.01.06-.02.01 0 .03-.01.05-.01.02-.01.04-.01.06-.02.01 0 .03-.01.05-.01.02-.01.04-.01.05-.02.02 0 .04-.01.06-.01.02-.01.04-.01.05-.02.02 0 .04-.01.06-.01.02-.01.04-.01.05-.02.02 0 .04-.01.06-.01.02-.01.04-.01.05-.02.02 0 .04-.01.06-.01.02-.01.03-.01.05-.02.02 0 .04-.01.06-.01.02-.01.03-.01.05-.02.02 0 .04-.01.06-.01.02-.01.03-.01.05-.02.02 0 .04-.01.06-.01.02-.01.03-.01.05-.02.02 0 .04-.01.06-.01.01-.01.03-.01.05-.02.02 0 .04-.01.06-.01.01-.01.03-.01.05-.02.02 0 .04-.01.06-.01.01-.01.03-.01.05-.02.02 0 .04-.01.05-.01.02-.01.04-.01.06-.02.02 0 .04-.01.05-.01.02-.01.04-.01.06-.02.02 0 .04-.01.05-.01.02-.01.04-.01.06-.02.02 0 .04-.01.05-.01.02-.01.04-.01.06-.02.02 0 .04-.01.05-.01.02-.01.04-.01.06-.02.02 0 .03-.01.05-.01.02-.01.04-.01.06-.02.02 0 .03-.01.05-.01.02-.01.04-.01.06-.02.02 0 .03-.01.05-.01.02-.01.04-.01.06-.02.01 0 .03-.01.05-.01.02-.01.04-.01.06-.02.01 0 .03-.01.05-.01.02-.01.04-.01.06-.02.01 0 .03-.01.05-.01.02-.01.04-.01.06-.02.01 0 .03-.01.05-.01.02-.01.04-.01.06-.02.01 0 .03-.01.05-.01.02-.01.04-.01.05-.02.02 0 .04-.01.06-.01.02-.01.04-.01.05-.02.02 0 .04-.01.06-.01.02-.01.04-.01.05-.02.02 0 .04-.01.06-.01.02-.01.03-.01.05-.02.02 0 .04-.01.06-.01.02-.01.03-.01.05-.02.02 0 .04-.01.06-.01.02-.01.03-.01.05-.02.02 0 .04-.01.06-.01.02-.01.03-.01.05-.02.02 0 .04-.01.06-.01.01-.01.03-.01.05-.02.02 0 .04-.01.06-.01.01-.01.03-.01.05-.02.02 0 .04-.01.06-.01.01-.01.03-.01.05-.02.02 0 .04-.01.06-.01.01-.01.03-.01.05-.02 1.33-.37 2.79-.3 4.15.3L702.98 72.3l20.75 9.24 120.05 53.45a6.116 6.116 0 0 1 3.1 8.07z"/><path fill="#F2FAFC" d="M841.35 144.57L806.43 223H500.75l1.31-2.94 10.33-23.2 4.48-10.05 10.33-23.2 4.47-10.05 10.33-23.2 4.47-10.05 31.55-70.86 1.51-3.39 6.71-15.07c.08-.18.17-.36.27-.53.03-.06.06-.11.09-.16.11-.17.22-.33.33-.49.01 0 .01-.01.02-.02.13-.17.27-.34.42-.49.01-.02.02-.03.03-.04.14-.15.29-.28.44-.42.01-.01.03-.02.04-.03.17-.15.35-.28.53-.4a6.045 6.045 0 0 1 1.79-.82c.05-.02.09-.03.13-.04l.11-.03c.03-.01.06-.01.09-.02 1.23-.26 2.55-.16 3.78.39l91.59 40.78 15.96 7.1 16.67 7.43 4.58 2.04 115.14 51.26a6.12 6.12 0 0 1 3.1 8.07z"/><path fill="#D6ECF2" d="M770.505 201.163l-178.918-79.659a5.38 5.38 0 1 1 4.377-9.831l178.918 79.659a5.381 5.381 0 0 1-4.377 9.831zM758.47 223h-26.46l-34.88-15.53-4.15-1.85-35.51-15.81-21-9.35-19.86-8.84h-.01l-18.22-8.12-21.27-9.47a5.382 5.382 0 0 1 2.18-10.3c.74 0 1.48.15 2.19.47l11.15 4.97 58.33 25.96 44.31 19.73 4.15 1.85L758.47 223zM670.95 223h-26.46l-38.94-17.34-42.92-19.11a5.374 5.374 0 0 1-2.73-7.1c.89-2.01 2.86-3.2 4.92-3.2.73 0 1.47.15 2.18.47L670.95 223zM552.52 209.25L583.41 223h-26.46l-8.8-3.92a5.382 5.382 0 0 1 2.18-10.3c.74 0 1.48.15 2.19.47z"/><g><path fill="#D6ECF2" d="M723.73 81.54c.01.46-.03.92-.13 1.39l-.49 2.31-16.12 75.86-2.29 10.76-5.28 24.85-2.29 10.76-3.3 15.53H403.8l41.56-195.5c.04-.18.08-.36.14-.53.04-.15.1-.3.16-.45.05-.14.11-.28.18-.41.07-.17.16-.33.25-.48.02-.03.04-.06.06-.1.12-.18.23-.34.36-.5.12-.17.26-.32.4-.47.02-.03.05-.06.09-.08.14-.15.28-.28.44-.41.34-.28.71-.53 1.1-.73.09-.05.18-.09.27-.14.03-.01.06-.02.09-.04.01-.01.03-.02.05-.03.01-.01.03-.02.05-.02.01-.01.03-.02.05-.03.01-.01.03-.02.05-.03.01-.01.03-.01.05-.02.01-.01.03-.02.05-.03.01-.01.03-.02.05-.02.02-.01.03-.02.05-.03s.03-.02.05-.03.03-.01.05-.02.03-.02.05-.03.03-.02.05-.02c.02-.01.03-.02.05-.03s.03-.02.05-.03.04-.01.05-.02c.02-.01.04-.02.05-.03.02-.01.04-.02.05-.02.02-.01.04-.02.05-.03.02-.01.04-.02.05-.03.02-.01.04-.01.05-.02l.06-.03c.01-.01.03-.02.05-.03.01 0 .03-.01.05-.02.01-.01.03-.02.05-.03.01-.01.03-.01.05-.02.01-.01.03-.02.05-.03.01-.01.03-.02.05-.03.01 0 .03-.01.05-.02s.03-.02.05-.03.03-.01.05-.02.03-.02.05-.03.03-.02.05-.03c.02 0 .03-.01.05-.02s.03-.02.05-.03.03-.01.05-.02.04-.02.05-.03c.02-.01.04-.02.05-.03.02 0 .04-.01.05-.02.02-.01.04-.02.05-.03.02-.01.04-.02.05-.02.02-.01.04-.02.05-.03.02-.01.04-.02.05-.03.02 0 .04-.01.06-.02.01-.01.03-.02.05-.03.01-.01.03-.02.05-.02.01-.01.03-.02.05-.03.01-.01.03-.02.05-.03.01 0 .03-.01.05-.02.01-.01.03-.02.05-.03.01-.01.03-.02.05-.02.02-.01.03-.02.05-.03s.03-.02.05-.03.03-.01.05-.02.03-.02.05-.03.03-.02.05-.02c.02-.01.03-.02.05-.03s.04-.02.05-.03c.02-.01.04-.01.05-.02.02-.01.04-.02.05-.03.02-.01.04-.02.05-.02.02-.01.04-.02.05-.03.02-.01.04-.02.05-.03.02-.01.04-.01.05-.02l.06-.03c.01-.01.03-.02.05-.02.01-.01.03-.02.05-.03.01-.01.03-.02.05-.03.01-.01.03-.01.05-.02.01-.01.03-.02.05-.03.01-.01.03-.02.05-.02.01-.01.03-.02.05-.03s.03-.02.05-.03.03-.01.05-.02.03-.02.05-.03.03-.02.05-.02c.02-.01.03-.02.05-.03s.03-.02.05-.03.03-.01.05-.02.04-.02.05-.03c.02-.01.04-.02.05-.03.02 0 .04-.01.05-.02.02-.01.04-.02.05-.03.02-.01.04-.01.05-.02.02-.01.04-.02.05-.03.02-.01.04-.02.05-.03.02 0 .04-.01.06-.02.01-.01.03-.02.05-.03.01-.01.03-.01.05-.02.01-.01.03-.02.05-.03.01-.01.03-.02.05-.03.01 0 .03-.01.05-.02.01-.01.03-.02.05-.03.01-.01.03-.01.05-.02 1.22-.65 2.66-.88 4.12-.57l121.82 25.89L685.9 68.67l17.08 3.63 15.91 3.38c2.83.6 4.78 3.08 4.84 5.86z"/><path fill="#F2FAFC" d="M718.5 85.56l-15.66 73.69v.01l-2.29 10.75-5.28 24.85-2.29 10.76-3.69 17.38H403.8l41.56-195.5c.04-.18.08-.36.14-.53.04-.15.1-.3.16-.45.05-.14.11-.28.18-.41.07-.17.16-.33.25-.48.02-.03.04-.06.06-.1.12-.18.23-.34.36-.5.12-.17.26-.32.4-.47.02-.03.05-.06.09-.08.14-.15.28-.28.44-.41.34-.29.71-.53 1.1-.73.09-.05.18-.09.27-.14.03-.01.06-.02.09-.04 1.13-.48 2.42-.64 3.71-.36l125.41 26.65 123.84 26.32 11.93 2.54c2.51.53 4.32 2.52 4.74 4.89.14.76.14 1.56-.03 2.36z"/><path fill="#D6ECF2" d="M660.975 155.647l-191.57-40.72a5.38 5.38 0 1 1 2.238-10.526l191.57 40.72a5.381 5.381 0 0 1-2.238 10.526zM653.573 190.471l-191.57-40.72a5.38 5.38 0 1 1 2.238-10.526l191.57 40.72a5.381 5.381 0 0 1-2.238 10.526zM652.55 221.15c-.14.68-.41 1.3-.78 1.85h-16.42l-122.96-26.14-57.79-12.28a5.381 5.381 0 0 1-4.14-6.39 5.372 5.372 0 0 1 6.38-4.14l60.03 12.76 88.68 18.85 42.86 9.11c2.91.62 4.76 3.47 4.14 6.38zM515.92 223h-51.78l-16.94-3.6a5.39 5.39 0 0 1-4.15-6.38 5.39 5.39 0 0 1 5.27-4.27c.37 0 .75.04 1.12.12l52.62 11.19 13.86 2.94z"/></g><g><path fill="#DFE5EA" d="M360.057 80.503l-1.513.213-6.778 85.312 38.322-5.385z"/><path fill="#C6CCD4" d="M356.648 67.031l1.513-.212 1.923 13.678-1.513.212z"/><path fill="#E25C59" d="M403.72 223H354.9l-7.48-53.24a5.478 5.478 0 0 1 4.54-6.16c.04-.01.08-.01.12-.02l37.03-5.21c.04-.01.08-.01.12-.01 2.94-.35 5.65 1.72 6.06 4.67l8.43 59.97z"/></g><g><path fill="#E25C59" d="M637.368 207.824l-11.647-17.388a2.153 2.153 0 0 0-2.956-.61l-17.578 11.357c-1.603 1.036-3.661-.373-3.276-2.243l10.199-49.425a2.153 2.153 0 0 1 2.543-1.673l35.136 7.25a2.153 2.153 0 0 1 1.673 2.543l-10.199 49.425c-.384 1.871-2.833 2.35-3.895.764z"/><path fill="#F4DF82" d="M645.27 96.07l2.745 5.69a1.994 1.994 0 0 0 2.376 1.041l6.043-1.84a1.993 1.993 0 0 1 2.572 1.845l.193 6.315c.03.982.772 1.796 1.746 1.917l6.27.777a1.993 1.993 0 0 1 1.599 2.732l-2.392 5.847a1.992 1.992 0 0 0 .816 2.461l5.411 3.261a1.992 1.992 0 0 1 .35 3.146l-4.563 4.369a1.993 1.993 0 0 0-.256 2.581l3.617 5.179a1.993 1.993 0 0 1-.96 3.016l-5.946 2.135a1.993 1.993 0 0 0-1.283 2.253l1.198 6.203a1.993 1.993 0 0 1-2.105 2.365l-6.3-.468a1.993 1.993 0 0 0-2.089 1.536l-1.429 6.154a1.993 1.993 0 0 1-2.884 1.305l-5.565-2.991a1.992 1.992 0 0 0-2.533.554l-3.807 5.04a1.993 1.993 0 0 1-3.166.019l-3.868-4.995a1.993 1.993 0 0 0-2.539-.524l-5.529 3.056a1.992 1.992 0 0 1-2.899-1.27l-1.501-6.136a1.994 1.994 0 0 0-2.107-1.512l-6.294.543a1.992 1.992 0 0 1-2.132-2.34l1.124-6.217a1.993 1.993 0 0 0-1.31-2.238l-5.971-2.064a1.993 1.993 0 0 1-.996-3.005l3.555-5.222a1.992 1.992 0 0 0-.287-2.577l-4.616-4.314a1.992 1.992 0 0 1 .312-3.15l5.372-3.324a1.993 1.993 0 0 0 .787-2.471l-2.461-5.818a1.993 1.993 0 0 1 1.567-2.751l6.26-.851a1.993 1.993 0 0 0 1.724-1.937l.118-6.317a1.993 1.993 0 0 1 2.55-1.876l6.065 1.767a1.992 1.992 0 0 0 2.362-1.069l2.676-5.723a1.991 1.991 0 0 1 3.092-.676l4.822 4.082c.75.635 1.851.628 2.593-.015l4.773-4.139a1.992 1.992 0 0 1 3.1.641z"/><circle fill="#F5B233" cx="636.292" cy="131.744" r="31.663"/><path fill="#F6E353" d="M641.372 115.777l2.408 9.239a1.952 1.952 0 0 0 1.222 1.342l8.976 3.254c1.52.551 1.748 2.605.386 3.476l-8.043 5.146a1.95 1.95 0 0 0-.898 1.577l-.321 9.543c-.054 1.615-1.937 2.468-3.186 1.442l-7.379-6.059a1.949 1.949 0 0 0-1.777-.366l-9.175 2.644c-1.553.448-2.945-1.08-2.356-2.585l3.483-8.89a1.95 1.95 0 0 0-.2-1.804l-5.349-7.909c-.905-1.339.117-3.135 1.73-3.039l9.531.565a1.949 1.949 0 0 0 1.653-.748l5.869-7.532c.995-1.277 3.019-.86 3.426.704z"/></g></svg>