<svg xmlns="http://www.w3.org/2000/svg" width="107" height="32" fill="currentColor" viewBox="0 0 107 32"><path d="M21.733 32 15.4 5.656c-.2-.8-.462-1.313-.796-1.57-.338-.26-.902-.387-1.735-.387-.832 0-1.396.126-1.734.387-.335.26-.597.774-.796 1.57L4.007 32H0L6.556 4.72A6 6 0 0 1 8.843 1.3C10.003.438 11.356 0 12.868 0s2.865.438 4.025 1.3c1.157.86 1.924 2.011 2.287 3.426L25.737 32H21.73zM34.233 0H30.34v32h3.894zM47.924 32c-2.581 0-4.596-.702-5.985-2.084s-2.094-3.387-2.094-5.956V8.845h3.894v14.717c0 1.35.102 2.312.305 2.942.226.69.662 1.176 1.295 1.436.582.243 1.473.359 2.716.359h9.385V8.845h3.894V32zM66.954 32V16.886c0-2.566.745-4.567 2.218-5.95 1.48-1.385 3.6-2.091 6.305-2.091h4.392v3.698h-4.701c-1.244 0-2.135.12-2.717.358-.632.265-1.069.746-1.294 1.437-.207.63-.305 1.592-.305 2.942v14.717h-3.895zM91.158 32a5.47 5.47 0 0 1-2.836-.767 5.9 5.9 0 0 1-2.073-2.062 5.4 5.4 0 0 1-.77-2.823c0-1.158.338-2.232 1.003-3.199a5.54 5.54 0 0 1 2.629-2.077l13.908-5.312-.029-.278a5.7 5.7 0 0 0-.222-1.14c-.225-.692-.662-1.176-1.294-1.44-.582-.243-1.473-.359-2.716-.359H85.926V8.845h12.523c2.705 0 4.825.702 6.305 2.092 1.472 1.382 2.218 3.383 2.218 5.949v10.522c0 1.27-.44 2.327-1.338 3.24-.902.907-1.971 1.349-3.273 1.349H91.165zm-.618-7.316c-.502.177-.81.383-.96.64-.138.235-.204.604-.204 1.154 0 .735.12 1.198.375 1.451.254.254.702.373 1.41.373h11.196c.131 0 .32-.036.502-.217a.7.7 0 0 0 .218-.5v-7.703z"/></svg>